<svg width="1240" height="275" viewBox="0 0 1240 275" fill="none" xmlns="http://www.w3.org/2000/svg">
<g clip-path="url(#clip0_2653_30440)">
<path d="M12.4168 46.2967C20.5765 12.9301 50.9977 7.09096 65.1884 8.34221C71.8403 6.25737 199.556 3.75374 214.19 2.91957C225.898 2.25224 350.037 0.695137 410.643 0H532.594H660.31H781.817L919.29 1.25125L1052.77 4.17082C1086.47 4.86596 1160.18 6.84015 1185.36 9.17581C1210.55 11.5115 1219.51 22.9395 1220.84 28.3616C1223.35 32.9495 1229.71 47.9644 1235.03 71.321C1241.68 100.517 1239.02 133.049 1239.91 139.722C1240.62 145.061 1236.95 171.699 1235.03 184.35C1234.29 189.077 1231.93 203.036 1228.38 221.053C1223.95 243.576 1207.09 259.008 1200 263.596C1192.9 268.184 1144.12 270.686 1140.13 270.686C1055.7 275.024 763.192 275.274 627.494 274.857L184.035 269.852C151.958 269.296 84.3458 267.85 70.5099 266.515C53.215 264.847 35.4767 264.013 25.7206 254.837C21.017 250.413 11.5299 227.727 9.31263 221.471C7.5388 216.466 3.84331 196.307 2.21729 186.853L0 154.32V107.607C0.739098 101.073 4.2572 79.6632 12.4168 46.2967Z" fill="#F3EDFF"/>
<circle cx="404" cy="311" r="191" fill="#F8F5FF"/>
<path d="M69 215.5L14.5 185L-5.00018 179.5L4 196C1.6 242.8 26.3333 258.5 39 260.5L69 215.5Z" fill="#F8F5FF"/>
<rect x="1107.87" y="130" width="56.6565" height="158" transform="rotate(23.0511 1107.87 130)" fill="#F8F5FF"/>
<rect x="663" y="104.32" width="56.6565" height="158" transform="rotate(-77.5312 663 104.32)" fill="#F8F5FF"/>
<rect x="236.482" y="-50" width="85" height="85" transform="rotate(22.4667 236.482 -50)" fill="#F8F5FF"/>
<path d="M38 93.0992C29.6 91.8992 7.66649 102.333 0.499828 107.5C-1 111.5 0.499992 157.599 -7.86781e-06 180.1C0.666659 179.933 6.59999 175.7 25 160.1C49 138.5 57 115.766 58 107.099C52 91.0983 48.5 94.5992 38 93.0992Z" fill="#F69291"/>
<path d="M27 95.6016C31.5 102.602 38.4 124.402 30 155.602" stroke="black" stroke-width="2"/>
<path d="M47.5 135.102C39.1667 134.102 22.2 125.302 21 98.1016" stroke="black" stroke-width="2"/>
<path d="M2.5 131.602C6.83333 139.268 13.1 159.102 3.5 177.102" stroke="black" stroke-width="2"/>
<path d="M19.5 164.602C15.1667 163.768 5.5 159.202 1.5 147.602" stroke="black" stroke-width="2"/>
<path d="M618.205 6.29833C619.821 -2.13423 625.996 -22.204 618.205 -29.2226C612.252 -30.6084 521.943 -29.3617 488.604 -29.2221C488.864 -28.5603 495.248 -22.7484 518.709 -4.79513C551.165 18.5866 584.994 25.939 597.851 26.6925C621.437 20.2389 616.185 16.839 618.205 6.29833Z" fill="#4198F7"/>
<path d="M1240 160V93.8045C1150.82 80.9168 1174.12 116.065 1180.55 126.024C1185.69 133.99 1222.32 151.994 1240 160Z" fill="#FFC700"/>
<path d="M1218 91C1219.88 95.7143 1235.77 116.457 1237 157" stroke="black" stroke-width="2"/>
<path d="M1208.5 91.5C1201.17 98.1667 1189.2 117.2 1200 140" stroke="black" stroke-width="2"/>
<path d="M1192.5 92C1203.5 102.833 1223.7 129.2 1216.5 148" stroke="black" stroke-width="2"/>
</g>
<defs>
<clipPath id="clip0_2653_30440">
<rect width="1240" height="275" fill="white"/>
</clipPath>
</defs>
</svg>
