<svg width="455" height="134" viewBox="0 0 455 134" fill="none" xmlns="http://www.w3.org/2000/svg">
<g clip-path="url(#clip0_577_17561)">
<path d="M0 133.223C0 133.223 204.304 21.005 455 132.695L0 133.223Z" fill="url(#paint0_linear_577_17561)"/>
<path d="M155.341 92.2285V103.312" stroke="#C1C3CA" stroke-width="2.76092" stroke-miterlimit="10"/>
<path d="M160.735 86.63C156.971 73.859 155.425 72.5371 155.425 72.5371C155.425 72.5371 154.245 73.9435 150.142 86.63C146.546 97.6852 152.896 97.7416 154.61 97.5726C154.582 97.5726 164.388 99.0353 160.735 86.63Z" fill="#E5E7EA"/>
<path d="M277.708 83.9863V95.4635" stroke="#C1C3CA" stroke-width="2.76092" stroke-miterlimit="10"/>
<path d="M283.272 78.1921C279.366 64.9712 277.764 63.6211 277.764 63.6211C277.764 63.6211 276.556 65.0838 272.285 78.1921C268.576 89.6411 275.151 89.6974 276.893 89.5285C276.921 89.5285 287.065 91.0194 283.272 78.1921Z" fill="#E5E7EA"/>
<path d="M295.044 92.2578V100.978" stroke="#C1C3CA" stroke-width="2.76092" stroke-miterlimit="10"/>
<path d="M299.287 87.8706C296.309 77.828 295.129 76.7871 295.129 76.7871C295.129 76.7871 294.202 77.8843 290.97 87.8706C288.16 96.5343 293.134 96.5907 294.483 96.478C294.455 96.478 302.153 97.6034 299.287 87.8706Z" fill="#E5E7EA"/>
<path d="M193.133 24.9423L248.57 20.0195C248.57 20.0195 261.973 20.6665 263.406 37.1789C264.839 53.6913 266.188 63.3117 266.188 63.3117L215.302 69.4442L212.015 41.6516C211.593 38.0509 210.217 34.6472 207.969 31.806C205.215 28.346 200.635 24.7735 193.133 24.9423Z" fill="#E3E5EA"/>
<path d="M216.988 69.1355L182.792 73.0173L179.336 44.1558C178.184 34.5353 185.153 25.8711 194.79 24.9148C204.119 24.0146 212.464 30.7377 213.56 40.0769L216.988 69.1355ZM223.423 68.1785V78.3338H232.47L232.358 67.363L223.423 68.1785Z" fill="#C1C3CA"/>
<path d="M182.427 73.3264L178.072 87.7853C177.398 89.7826 177.117 91.8924 177.257 94.0018C177.538 97.9681 179.421 102.975 187.232 102.779C192.065 102.638 196.167 100.838 199.427 98.6716C203.979 95.6335 207.491 91.3016 209.683 86.2944L217.269 69.4727L182.427 73.3264Z" fill="#D0D2D6"/>
<path d="M233.201 77.8535H222.832V101.68H233.201V77.8535Z" fill="#CDCFD4"/>
<path d="M210.806 33.1562L180.742 54.704M211.481 33.6067L182.905 72.5949M199.005 71.0477L211.397 35.0131M193.414 45.7025C193.414 45.7025 199.511 44.0428 199.483 49.1625C199.483 49.1625 205.355 47.8404 205.018 53.7197M185.321 51.638C185.321 51.638 193.049 49.9784 193.189 58.0796C193.189 58.0796 199.371 55.8013 201.759 62.3558" stroke="#CDCFD4" stroke-width="1.65655" stroke-miterlimit="10"/>
<path fill-rule="evenodd" clip-rule="evenodd" d="M151.182 12.3675L150.733 12.3393V13.0708L151.182 13.0989V12.3675ZM151.267 11.0456L150.817 11.0175L150.761 11.7488L151.21 11.7769L151.267 11.0456ZM151.323 9.72336L150.873 9.69531L150.845 10.4266L151.295 10.4548L151.323 9.72336ZM151.21 16.3059L150.761 16.334C150.789 16.5871 150.789 16.8404 150.817 17.0654L151.267 17.0372C151.21 16.8122 151.21 16.5591 151.21 16.3059ZM151.154 14.9837H150.704C150.704 15.2369 150.704 15.4901 150.733 15.7151H151.182C151.182 15.4901 151.154 15.2369 151.154 14.9837ZM151.154 13.6898H150.704V14.4212H151.154V13.6898ZM151.688 20.2158L151.267 20.3283L151.435 21.0597L151.856 20.9472L151.688 20.2158ZM151.463 18.9219L151.014 18.9783C151.042 19.2314 151.098 19.4845 151.126 19.7096L151.576 19.6252C151.519 19.4283 151.491 19.1751 151.463 18.9219ZM151.295 17.628L150.845 17.6843C150.873 17.9375 150.901 18.1907 150.929 18.4157L151.379 18.3594C151.351 18.1062 151.323 17.8812 151.295 17.628ZM152.952 23.929L152.559 24.1259C152.671 24.351 152.784 24.5761 152.896 24.8011L153.29 24.5761C153.149 24.3792 153.065 24.1541 152.952 23.929ZM152.447 22.7475L152.025 22.8882L152.306 23.5914L152.699 23.4226L152.447 22.7475ZM152.025 21.51L151.604 21.6506C151.66 21.9038 151.744 22.1289 151.829 22.3539L152.25 22.2132C152.166 21.96 152.082 21.735 152.025 21.51ZM155.088 27.2483L154.723 27.5297L155.229 28.0922L155.566 27.7828L155.088 27.2483ZM154.273 26.2077L153.908 26.4609C154.048 26.6578 154.217 26.8547 154.357 27.0516L154.723 26.7703C154.582 26.6015 154.413 26.4046 154.273 26.2077ZM153.571 25.1106L153.177 25.3356C153.29 25.5607 153.43 25.7576 153.571 25.9827L153.936 25.7295C153.824 25.5326 153.683 25.3075 153.571 25.1106ZM157.926 29.949L157.645 30.3147C157.841 30.4834 158.066 30.5959 158.263 30.7366L158.516 30.371C158.319 30.2303 158.123 30.0896 157.926 29.949ZM156.914 29.1051L156.605 29.4426C156.802 29.6114 156.971 29.7802 157.167 29.9208L157.448 29.5833C157.28 29.4426 157.083 29.2739 156.914 29.1051ZM155.959 28.2049L155.622 28.5143C155.79 28.6831 155.959 28.88 156.156 29.0488L156.465 28.7112C156.296 28.5706 156.127 28.3737 155.959 28.2049ZM161.326 31.8898L161.157 32.3117C161.382 32.3962 161.607 32.5086 161.86 32.5931L162.028 32.1711C161.775 32.0867 161.55 32.0023 161.326 31.8898ZM160.146 31.3272L159.921 31.7492L160.595 32.0867L160.792 31.6647L160.146 31.3272ZM159.021 30.6803L158.769 31.0741L159.415 31.4398L159.64 31.0741L159.021 30.6803ZM165.091 32.987L165.035 33.4371C165.288 33.4653 165.541 33.5215 165.793 33.5215L165.822 33.0714C165.569 33.0433 165.316 33.0151 165.091 32.987ZM163.798 32.7337L163.686 33.1839L164.444 33.3245L164.529 32.8744L163.798 32.7337ZM162.562 32.3681L162.422 32.79C162.647 32.8744 162.899 32.9307 163.124 33.0151L163.236 32.5931C163.012 32.5088 162.787 32.4525 162.562 32.3681ZM168.969 32.8744L169.053 33.3245C169.306 33.2682 169.559 33.212 169.784 33.1557L169.671 32.7337C169.446 32.7619 169.221 32.8181 168.969 32.8744ZM167.676 33.0714L167.704 33.5215C167.957 33.4934 168.21 33.4653 168.463 33.4371L168.406 32.987C168.182 33.0151 167.929 33.0433 167.676 33.0714ZM166.383 33.0997V33.5497C166.636 33.5497 166.889 33.5778 167.142 33.5497V33.0997C166.889 33.1278 166.636 33.0997 166.383 33.0997ZM172.48 31.271L172.761 31.6085C172.958 31.4397 173.127 31.2429 173.324 31.0741L172.986 30.7646C172.818 30.9334 172.649 31.1022 172.48 31.271ZM171.413 32.0025L171.638 32.3963C171.863 32.2556 172.059 32.1149 172.284 32.0025L172.031 31.6368C171.806 31.7493 171.61 31.8899 171.413 32.0025ZM170.233 32.537L170.373 32.959C170.598 32.8746 170.851 32.762 171.076 32.6777L170.879 32.2557C170.682 32.3401 170.458 32.4526 170.233 32.537ZM174.251 27.9799L174.7 28.008C174.728 27.7548 174.7 27.4735 174.672 27.2203L174.223 27.2766C174.279 27.5017 174.279 27.7548 174.251 27.9799ZM173.97 29.2176L174.392 29.3864C174.504 29.1332 174.56 28.88 174.616 28.6268L174.167 28.5425C174.139 28.7675 174.054 28.9926 173.97 29.2176ZM173.352 30.3145L173.717 30.5678C173.858 30.3428 173.998 30.1458 174.139 29.9208L173.745 29.6957C173.605 29.9208 173.492 30.1176 173.352 30.3145ZM172.256 25.195L172.368 24.7449C172.115 24.6887 171.863 24.6324 171.581 24.6042L171.553 25.0543C171.806 25.1105 172.031 25.1387 172.256 25.195ZM173.38 25.7574L173.66 25.4199C173.436 25.2511 173.211 25.1104 172.958 24.9979L172.761 25.4199C172.986 25.5042 173.183 25.6168 173.38 25.7574ZM174.11 26.7421L174.532 26.5734C174.447 26.3202 174.307 26.067 174.139 25.8701L173.801 26.1515C173.913 26.3202 174.026 26.5171 174.11 26.7421ZM168.575 25.8701L168.35 25.4762C168.238 25.5325 168.125 25.6168 168.041 25.7013C167.929 25.7856 167.816 25.8419 167.732 25.9263L168.013 26.292C168.097 26.2076 168.21 26.1513 168.294 26.067C168.378 25.9825 168.463 25.9263 168.575 25.8701ZM169.755 25.3076L169.615 24.8856C169.474 24.9137 169.362 24.9699 169.25 25.0262C169.137 25.0825 169.025 25.1387 168.884 25.195L169.081 25.5888C169.193 25.5326 169.305 25.4763 169.418 25.4482C169.531 25.3919 169.615 25.3357 169.755 25.3076ZM170.992 25.0824L170.964 24.6323C170.823 24.6323 170.711 24.6604 170.57 24.6604C170.43 24.6604 170.317 24.6886 170.177 24.7167L170.261 25.1668C170.373 25.1387 170.486 25.1105 170.598 25.1105C170.711 25.1105 170.879 25.0824 170.992 25.0824ZM166.074 28.7393L165.653 28.5705C165.541 28.7956 165.456 29.0487 165.372 29.2738L165.793 29.4144C165.906 29.1894 165.99 28.9644 166.074 28.7393ZM166.721 27.6142L166.355 27.361C166.271 27.4735 166.215 27.586 166.13 27.6705C166.074 27.7829 165.99 27.8955 165.934 28.008L166.327 28.233C166.383 28.1205 166.44 28.0361 166.524 27.9236C166.58 27.811 166.636 27.7267 166.721 27.6142ZM167.564 26.6576L167.255 26.3201C167.17 26.4045 167.058 26.4889 166.973 26.6014C166.89 26.6858 166.805 26.7983 166.721 26.8827L167.058 27.164C167.142 27.0796 167.198 26.9671 167.283 26.9109C167.395 26.8265 167.479 26.7421 167.564 26.6576Z" fill="#C1C3CA"/>
<path fill-rule="evenodd" clip-rule="evenodd" d="M165.428 32.5644L164.978 32.5926C164.978 32.8458 165.006 33.0989 165.035 33.3521L165.484 33.2958C165.456 33.0427 165.428 32.7895 165.428 32.5644ZM165.456 31.2422L165.006 31.1859C164.978 31.4391 164.978 31.6923 164.95 31.9454H165.4C165.428 31.7204 165.428 31.4953 165.456 31.2422ZM165.652 29.9766L165.231 29.8641C165.175 30.1173 165.119 30.3704 165.091 30.6235L165.54 30.6798C165.569 30.4548 165.596 30.2016 165.652 29.9766ZM166.186 36.39L165.765 36.5307C165.849 36.7557 165.934 37.0089 166.018 37.2339L166.439 37.0651C166.355 36.8401 166.271 36.6151 166.186 36.39ZM165.793 35.1242L165.371 35.2367C165.428 35.4898 165.512 35.7149 165.569 35.9681L165.99 35.8274C165.934 35.6024 165.849 35.3774 165.793 35.1242ZM165.54 33.8583L165.091 33.9146C165.119 34.1677 165.175 34.4209 165.231 34.646L165.681 34.5616C165.624 34.3365 165.569 34.1115 165.54 33.8583ZM167.957 39.8783L167.591 40.1315L168.013 40.7503L168.378 40.469L167.957 39.8783ZM167.283 38.7531L166.889 38.9782L167.254 39.6251L167.648 39.4001L167.283 38.7531ZM166.692 37.5998L166.271 37.7968C166.383 38.0218 166.468 38.2468 166.58 38.4719L166.973 38.2749L166.692 37.5998ZM170.542 42.8319L170.233 43.1696L170.794 43.6758L171.075 43.3383L170.542 42.8319ZM169.614 41.9317L169.278 42.2412L169.783 42.7756L170.12 42.4381L169.614 41.9317ZM168.744 40.9472L168.406 41.2285L168.884 41.7911L169.221 41.5098L168.744 40.9472ZM173.717 45.1387L173.492 45.5325L174.138 45.8982L174.363 45.5043L173.717 45.1387ZM172.593 44.4634L172.34 44.8292L172.986 45.2511L173.211 44.8573L172.593 44.4634ZM171.553 43.7039L171.272 44.0414L171.862 44.4915L172.115 44.1258L171.553 43.7039ZM177.314 46.6575L177.201 47.1076L177.931 47.3045L178.016 46.8544L177.314 46.6575ZM176.077 46.2639L175.937 46.6858L176.639 46.9389L176.78 46.4889L176.077 46.2639ZM174.869 45.7576L174.7 46.1514L175.375 46.4609L175.543 46.0389L174.869 45.7576ZM155.369 4.68767C155.369 4.68767 154.975 6.99436 157.167 7.36002C157.167 7.36002 158.488 6.40363 157.869 5.10962C157.28 3.84377 155.369 4.68767 155.369 4.68767Z" fill="#C1C3CA"/>
<path fill-rule="evenodd" clip-rule="evenodd" d="M155.06 4.85644C155.06 4.85644 154.835 7.24755 156.942 7.5851C156.942 7.5851 156.043 8.59781 155.2 8.00708C154.413 7.47262 153.852 6.45992 154.048 5.53158C154.104 5.30656 154.217 5.0815 154.413 4.94085C154.582 4.88458 154.807 4.80018 155.06 4.85644Z" fill="#C1C3CA"/>
<path fill-rule="evenodd" clip-rule="evenodd" d="M153.571 5.70092C153.571 5.64471 152.475 6.88243 152.728 7.7826C152.728 7.7826 152.082 8.12015 152.11 8.51397C152.11 8.51397 152.587 8.03578 153.009 8.26079C153.009 8.26079 153.852 9.21723 155.172 8.51397C155.2 8.48581 153.683 7.6419 153.571 5.70092ZM155.228 4.29443C154.554 3.75996 154.048 3.0286 153.739 2.21283C153.655 2.01592 153.599 1.81902 153.599 1.59398C153.571 1.25642 153.683 0.918857 153.88 0.609424C154.02 0.384383 154.161 0.187431 154.413 0.0749105C154.891 -0.150131 155.51 0.159301 155.762 0.637514C156.015 1.11573 155.987 1.67835 155.903 2.21283C155.819 2.83169 155.65 3.47871 155.425 4.06944C155.369 4.18197 155.313 4.29443 155.228 4.29443C155.144 4.32256 155.06 4.2382 154.976 4.18194C154.189 3.36617 153.121 2.91611 152.082 2.52229C151.857 2.4379 151.604 2.35345 151.379 2.32532C151.098 2.32532 150.845 2.40977 150.592 2.52229C150.255 2.69107 149.946 2.94419 149.805 3.30988C149.665 3.67557 149.749 4.09755 150.03 4.32259C150.199 4.46324 150.424 4.49139 150.649 4.54764C152.138 4.80082 153.655 4.74457 155.116 4.35075" fill="#C1C3CA"/>
<path d="M216.651 69.0211L182.821 72.8748L179.393 44.2947C178.241 34.7867 185.153 26.1788 194.678 25.2787C203.922 24.3785 212.183 31.0453 213.251 40.2721L216.651 69.0211Z" stroke="#C1C3CA" stroke-width="2.76092" stroke-miterlimit="10"/>
<path d="M252.898 13.5488L261.917 20.1875C262.282 20.4406 262.17 21.0314 261.721 21.144L258.095 21.9879L258.405 25.7855C258.433 26.2636 257.899 26.5449 257.534 26.2355L248.43 18.2747L252.898 13.5488Z" fill="#AE2EC4"/>
<path d="M244.889 33.1562C245.991 33.1562 246.884 32.2494 246.884 31.1308C246.884 30.0122 245.991 29.1055 244.889 29.1055C243.788 29.1055 242.894 30.0122 242.894 31.1308C242.894 32.2494 243.788 33.1562 244.889 33.1562Z" fill="#949BA9"/>
<path d="M245.62 30.1178C245.957 28.43 246.295 26.7421 246.632 25.0543C246.856 23.8728 247.109 22.6914 247.334 21.4818C247.447 20.9755 247.728 20.2159 247.671 19.7096C247.699 20.0753 247.222 20.2723 247.728 19.8222C248.009 19.569 248.289 19.2595 248.542 18.9783C249.385 18.1344 250.228 17.2623 251.043 16.4184C252.251 15.1807 253.487 13.9148 254.696 12.6771C255.595 11.7769 254.19 10.3704 253.319 11.2987C252.026 12.6208 250.762 13.9148 249.47 15.2369C248.655 16.0808 247.84 16.9247 246.997 17.7405C246.603 18.1343 246.042 18.5563 245.789 19.0907C245.564 19.5971 245.536 20.2722 245.423 20.7786C245.199 21.9319 244.974 23.1133 244.721 24.2666C244.356 26.0389 244.019 27.8392 243.653 29.6114C243.485 30.821 245.395 31.3555 245.62 30.1178Z" fill="#949BA9"/>
<path d="M308.138 12.1723C309.768 12.1723 309.768 9.64062 308.138 9.64062C306.509 9.64062 306.509 12.1723 308.138 12.1723Z" fill="url(#paint1_linear_577_17561)"/>
</g>
<defs>
<linearGradient id="paint0_linear_577_17561" x1="224.385" y1="38.2215" x2="225.504" y2="196.373" gradientUnits="userSpaceOnUse">
<stop offset="0.1653" stop-color="#E3E5EA"/>
<stop offset="0.3741" stop-color="#F4F5F7" stop-opacity="0.6199"/>
<stop offset="0.5962" stop-color="#F6F7F8" stop-opacity="0"/>
</linearGradient>
<linearGradient id="paint1_linear_577_17561" x1="308.122" y1="12.1644" x2="308.155" y2="9.63284" gradientUnits="userSpaceOnUse">
<stop offset="0.1653" stop-color="#E3E5EA"/>
<stop offset="0.2826" stop-color="#EDEFF1" stop-opacity="0.8497"/>
<stop offset="0.4662" stop-color="#F4F5F7" stop-opacity="0.6143"/>
<stop offset="0.9455" stop-color="#F6F7F8" stop-opacity="0"/>
</linearGradient>
<clipPath id="clip0_577_17561">
<rect width="455" height="133.629" fill="white"/>
</clipPath>
</defs>
</svg>
