<svg width="42" height="42" viewBox="0 0 42 42" fill="none" xmlns="http://www.w3.org/2000/svg">
<circle cx="21" cy="21" r="21" fill="black" fill-opacity="0.4"/>
<path d="M18 19.75C16.48 19.75 15.25 18.52 15.25 17C15.25 15.48 16.48 14.25 18 14.25C19.52 14.25 20.75 15.48 20.75 17C20.75 18.52 19.52 19.75 18 19.75ZM18 15.75C17.31 15.75 16.75 16.31 16.75 17C16.75 17.69 17.31 18.25 18 18.25C18.69 18.25 19.25 17.69 19.25 17C19.25 16.31 18.69 15.75 18 15.75Z" fill="white"/>
<path d="M24 31.75H18C12.57 31.75 10.25 29.43 10.25 24V18C10.25 12.57 12.57 10.25 18 10.25H22C22.41 10.25 22.75 10.59 22.75 11C22.75 11.41 22.41 11.75 22 11.75H18C13.39 11.75 11.75 13.39 11.75 18V24C11.75 28.61 13.39 30.25 18 30.25H24C28.61 30.25 30.25 28.61 30.25 24V19C30.25 18.59 30.59 18.25 31 18.25C31.41 18.25 31.75 18.59 31.75 19V24C31.75 29.43 29.43 31.75 24 31.75Z" fill="white"/>
<path d="M30.25 14.75H24.75C24.34 14.75 24 14.41 24 14C24 13.59 24.34 13.25 24.75 13.25H30.25C30.66 13.25 31 13.59 31 14C31 14.41 30.66 14.75 30.25 14.75Z" fill="white"/>
<path d="M27.5 17.5C27.09 17.5 26.75 17.16 26.75 16.75V11.25C26.75 10.84 27.09 10.5 27.5 10.5C27.91 10.5 28.25 10.84 28.25 11.25V16.75C28.25 17.16 27.91 17.5 27.5 17.5Z" fill="white"/>
<path d="M11.67 28.6996C11.43 28.6996 11.19 28.5796 11.05 28.3696C10.82 28.0296 10.91 27.5596 11.25 27.3296L16.18 24.0196C17.26 23.2996 18.75 23.3796 19.73 24.2096L20.06 24.4996C20.56 24.9296 21.41 24.9296 21.9 24.4996L26.06 20.9296C27.13 20.0196 28.79 20.0196 29.86 20.9296L31.49 22.3296C31.8 22.5996 31.84 23.0696 31.57 23.3896C31.3 23.6996 30.83 23.7396 30.51 23.4696L28.88 22.0696C28.38 21.6396 27.53 21.6396 27.04 22.0696L22.88 25.6396C21.82 26.5496 20.15 26.5496 19.08 25.6396L18.75 25.3496C18.29 24.9596 17.53 24.9196 17.02 25.2696L12.1 28.5796C11.96 28.6596 11.81 28.6996 11.67 28.6996Z" fill="white"/>
</svg>
