<svg width="20" height="20" viewBox="0 0 20 20" fill="none" xmlns="http://www.w3.org/2000/svg">
<path d="M9.99998 10.2087C9.63331 10.2087 9.26665 10.117 8.93331 9.94199L3.50831 7.01699C3.01665 6.75033 2.70831 6.22533 2.70831 5.64199C2.70831 5.05866 3.01665 4.53366 3.50831 4.26699L8.93331 1.34199C9.59998 0.983659 10.4 0.983659 11.0583 1.34199L16.4833 4.26699C16.975 4.53366 17.2833 5.05866 17.2833 5.64199C17.2833 6.22533 16.975 6.75033 16.4833 7.01699L11.0583 9.94199C10.7333 10.1253 10.3666 10.2087 9.99998 10.2087ZM9.99998 2.31699C9.84165 2.31699 9.67498 2.35866 9.52498 2.44199L4.10831 5.35866C3.96665 5.43366 3.95831 5.59199 3.95831 5.64199C3.95831 5.69199 3.96665 5.85033 4.10831 5.91699L9.53331 8.84199C9.83331 9.00032 10.175 9.00032 10.475 8.84199L15.9 5.91699C16.0333 5.84199 16.05 5.68366 16.05 5.64199C16.05 5.59199 16.0416 5.43366 15.9 5.36699L10.475 2.44199C10.325 2.35866 10.1583 2.31699 9.99998 2.31699Z" fill="#7E848E"/>
<path d="M8.15002 18.9338C7.91669 18.9338 7.67502 18.8755 7.45835 18.7671L2.40835 16.2505C1.56669 15.8255 1.04169 14.9755 1.04169 14.0338V9.26712C1.04169 8.72546 1.31669 8.23379 1.77502 7.95046C2.24169 7.66712 2.80002 7.64212 3.28335 7.88379L8.33335 10.4005C9.17502 10.8255 9.70002 11.6671 9.70002 12.6171V17.3838C9.70002 17.9255 9.42502 18.4171 8.96669 18.7005C8.71669 18.8588 8.43335 18.9338 8.15002 18.9338ZM2.59169 8.96712C2.52502 8.96712 2.46669 8.99213 2.43335 9.00879C2.38335 9.04213 2.29169 9.11712 2.29169 9.26712V14.0338C2.29169 14.5005 2.55002 14.9255 2.96669 15.1338L8.00835 17.6588C8.14169 17.7255 8.25002 17.6755 8.30002 17.6505C8.35002 17.6171 8.44169 17.5421 8.44169 17.3921V12.6255C8.44169 12.1588 8.18335 11.7338 7.76669 11.5255L2.72502 9.00046C2.67502 8.97546 2.63335 8.96712 2.59169 8.96712Z" fill="#7E848E"/>
<path d="M11.85 18.9333C11.5667 18.9333 11.2833 18.8583 11.0333 18.7C10.575 18.4167 10.3 17.925 10.3 17.3833V12.6167C10.3 11.675 10.825 10.825 11.6667 10.4L16.7083 7.875C17.1917 7.63334 17.7583 7.65834 18.2167 7.94167C18.675 8.225 18.95 8.71667 18.95 9.25834V14.025C18.95 14.9667 18.425 15.8167 17.5833 16.2417L12.5417 18.7667C12.325 18.8833 12.0833 18.9333 11.85 18.9333ZM17.4083 8.96667C17.3667 8.96667 17.325 8.975 17.275 9L12.2333 11.525C11.8167 11.7333 11.5583 12.15 11.5583 12.625V17.3917C11.5583 17.5417 11.65 17.6167 11.7 17.65C11.75 17.6833 11.8583 17.725 11.9917 17.6583L17.0333 15.1333C17.45 14.925 17.7083 14.5 17.7083 14.0333V9.26667C17.7083 9.11667 17.6167 9.04167 17.5667 9.00834C17.5333 8.99167 17.475 8.96667 17.4083 8.96667Z" fill="#7E848E"/>
</svg>
