<svg width="52" height="54" viewBox="0 0 52 54" fill="none" xmlns="http://www.w3.org/2000/svg">
<rect x="-1" y="24.6113" width="30" height="30.0003" rx="9" transform="rotate(-6.91366 -1 24.6113)" fill="#B1C7FA"/>
<circle cx="30.5" cy="21.5" r="19.5" fill="#E6ECFA" stroke="white" stroke-width="4"/>
<path d="M35.0605 19.8105C35.5 19.371 35.5 18.6645 35.5 17.25C35.5 15.8355 35.5 15.129 35.0605 14.6895M35.0605 19.8105C34.621 20.25 33.9145 20.25 32.5 20.25H29.5C28.0855 20.25 27.379 20.25 26.9395 19.8105M35.0605 14.6895C34.621 14.25 33.9145 14.25 32.5 14.25H29.5C28.0855 14.25 27.379 14.25 26.9395 14.6895M26.9395 14.6895C26.5 15.129 26.5 15.8355 26.5 17.25C26.5 18.6645 26.5 19.371 26.9395 19.8105M31.75 17.25C31.75 17.4489 31.671 17.6397 31.5303 17.7803C31.3897 17.921 31.1989 18 31 18C30.8011 18 30.6103 17.921 30.4697 17.7803C30.329 17.6397 30.25 17.4489 30.25 17.25C30.25 17.0511 30.329 16.8603 30.4697 16.7197C30.6103 16.579 30.8011 16.5 31 16.5C31.1989 16.5 31.3897 16.579 31.5303 16.7197C31.671 16.8603 31.75 17.0511 31.75 17.25Z" stroke="#0049F4" stroke-width="1.2"/>
<path d="M35.5 16.5C34.9033 16.5 34.331 16.2629 33.909 15.841C33.4871 15.419 33.25 14.8467 33.25 14.25M35.5 18C34.9033 18 34.331 18.2371 33.909 18.659C33.4871 19.081 33.25 19.6533 33.25 20.25M26.5 16.5C27.0967 16.5 27.669 16.2629 28.091 15.841C28.5129 15.419 28.75 14.8467 28.75 14.25M26.5 18C27.0967 18 27.669 18.2371 28.091 18.659C28.5129 19.081 28.75 19.6533 28.75 20.25M25.75 27.291H27.445C28.2025 27.291 28.9697 27.3705 29.707 27.522C31.0232 27.7924 32.3776 27.8224 33.7045 27.6105C34.3555 27.5055 34.9945 27.3442 35.5735 27.0652C36.0955 26.8125 36.7352 26.4577 37.165 26.0595C37.594 25.662 38.041 25.0117 38.3575 24.5032C38.6305 24.0667 38.4985 23.532 38.068 23.2072C37.8261 23.0313 37.5346 22.9365 37.2355 22.9365C36.9364 22.9365 36.6449 23.0313 36.403 23.2072L35.0477 24.231C34.5227 24.6285 33.949 24.9937 33.2657 25.1025C33.1832 25.1152 33.097 25.1272 33.007 25.1377M33.007 25.1377C32.9795 25.1409 32.952 25.1439 32.9245 25.1467M33.007 25.1377C33.127 25.1053 33.2371 25.0434 33.3272 24.9577C33.4403 24.86 33.5326 24.7406 33.5987 24.6065C33.6648 24.4725 33.7034 24.3266 33.7122 24.1774C33.721 24.0283 33.6998 23.8788 33.65 23.738C33.6001 23.5971 33.5225 23.4676 33.4217 23.3572C33.324 23.2487 33.2102 23.1559 33.0842 23.082C30.9865 21.8302 27.7217 22.7835 25.75 24.1822M33.007 25.1377C32.9799 25.1437 32.9522 25.1467 32.9245 25.1467M32.9245 25.1467C32.4722 25.1922 32.0165 25.1932 31.564 25.1497" stroke="#0049F4" stroke-width="1.2" stroke-linecap="round"/>
<path d="M25.75 23.625C25.75 23.0037 25.2463 22.5 24.625 22.5C24.0037 22.5 23.5 23.0037 23.5 23.625V27.375C23.5 27.9963 24.0037 28.5 24.625 28.5C25.2463 28.5 25.75 27.9963 25.75 27.375V23.625Z" stroke="#0049F4" stroke-width="1.2"/>
</svg>
