<svg width="51" height="50" viewBox="0 0 51 50" fill="none" xmlns="http://www.w3.org/2000/svg">
<rect x="0.333313" width="50" height="50" rx="6" fill="#5A27D5" fill-opacity="0.03"/>
<rect x="7.33331" y="7" width="36" height="36" rx="4" fill="#5A27D5" fill-opacity="0.01"/>
<path d="M30.7473 23.414C31.3333 22.828 31.3333 21.886 31.3333 20C31.3333 18.114 31.3333 17.172 30.7473 16.586M30.7473 23.414C30.1613 24 29.2193 24 27.3333 24H23.3333C21.4473 24 20.5053 24 19.9193 23.414M30.7473 16.586C30.1613 16 29.2193 16 27.3333 16H23.3333C21.4473 16 20.5053 16 19.9193 16.586M19.9193 16.586C19.3333 17.172 19.3333 18.114 19.3333 20C19.3333 21.886 19.3333 22.828 19.9193 23.414M26.3333 20C26.3333 20.2652 26.228 20.5196 26.0404 20.7071C25.8529 20.8946 25.5985 21 25.3333 21C25.0681 21 24.8137 20.8946 24.6262 20.7071C24.4387 20.5196 24.3333 20.2652 24.3333 20C24.3333 19.7348 24.4387 19.4804 24.6262 19.2929C24.8137 19.1054 25.0681 19 25.3333 19C25.5985 19 25.8529 19.1054 26.0404 19.2929C26.228 19.4804 26.3333 19.7348 26.3333 20Z" stroke="url(#paint0_linear_1255_25575)" stroke-width="1.2"/>
<path d="M31.3333 19C30.5377 19 29.7746 18.6839 29.212 18.1213C28.6494 17.5587 28.3333 16.7956 28.3333 16M31.3333 21C30.5377 21 29.7746 21.3161 29.212 21.8787C28.6494 22.4413 28.3333 23.2043 28.3333 24M19.3333 19C20.129 19 20.892 18.6839 21.4546 18.1213C22.0172 17.5587 22.3333 16.7956 22.3333 16M19.3333 21C20.129 21 20.892 21.3161 21.4546 21.8787C22.0172 22.4413 22.3333 23.2043 22.3333 24M18.3333 33.388H20.5933C21.6033 33.388 22.6263 33.494 23.6093 33.696C25.3643 34.0565 27.1701 34.0965 28.9393 33.814C29.8073 33.674 30.6593 33.459 31.4313 33.087C32.1273 32.75 32.9803 32.277 33.5533 31.746C34.1253 31.216 34.7213 30.349 35.1433 29.671C35.5073 29.089 35.3313 28.376 34.7573 27.943C34.4348 27.7084 34.0462 27.582 33.6473 27.582C33.2485 27.582 32.8599 27.7084 32.5373 27.943L30.7303 29.308C30.0303 29.838 29.2653 30.325 28.3543 30.47C28.2443 30.487 28.1293 30.503 28.0093 30.517M28.0093 30.517C27.9727 30.5212 27.936 30.5252 27.8993 30.529M28.0093 30.517C28.1694 30.4737 28.3161 30.3912 28.4363 30.277C28.587 30.1466 28.71 29.9874 28.7982 29.8087C28.8864 29.63 28.9378 29.4355 28.9496 29.2366C28.9613 29.0377 28.9331 28.8384 28.8666 28.6506C28.8001 28.4628 28.6966 28.2902 28.5623 28.143C28.432 27.9983 28.2802 27.8746 28.1123 27.776C25.3153 26.107 20.9623 27.378 18.3333 29.243M28.0093 30.517C27.9732 30.5249 27.9363 30.5289 27.8993 30.529M27.8993 30.529C27.2962 30.5896 26.6887 30.5909 26.0853 30.533" stroke="url(#paint1_linear_1255_25575)" stroke-width="1.2" stroke-linecap="round"/>
<path d="M18.3333 28.5C18.3333 27.6716 17.6617 27 16.8333 27C16.0049 27 15.3333 27.6716 15.3333 28.5V33.5C15.3333 34.3284 16.0049 35 16.8333 35C17.6617 35 18.3333 34.3284 18.3333 33.5V28.5Z" stroke="url(#paint2_linear_1255_25575)" stroke-width="1.2"/>
<rect x="7.58331" y="7.25" width="35.5" height="35.5" rx="3.75" stroke="#5A27D5" stroke-opacity="0.1" stroke-width="0.5"/>
<rect x="0.583313" y="0.25" width="49.5" height="49.5" rx="5.75" stroke="#5A27D5" stroke-opacity="0.06" stroke-width="0.5"/>
<defs>
<linearGradient id="paint0_linear_1255_25575" x1="19.3333" y1="16" x2="31.4808" y2="16.2306" gradientUnits="userSpaceOnUse">
<stop stop-color="#5A27D5"/>
<stop offset="0.323634" stop-color="#5F27D3"/>
<stop offset="1" stop-color="#AE2EC4"/>
</linearGradient>
<linearGradient id="paint1_linear_1255_25575" x1="18.3333" y1="16" x2="35.5459" y2="16.2057" gradientUnits="userSpaceOnUse">
<stop stop-color="#5A27D5"/>
<stop offset="0.323634" stop-color="#5F27D3"/>
<stop offset="1" stop-color="#AE2EC4"/>
</linearGradient>
<linearGradient id="paint2_linear_1255_25575" x1="15.3333" y1="27" x2="18.3712" y2="27.0144" gradientUnits="userSpaceOnUse">
<stop stop-color="#5A27D5"/>
<stop offset="0.323634" stop-color="#5F27D3"/>
<stop offset="1" stop-color="#AE2EC4"/>
</linearGradient>
</defs>
</svg>
