<svg width="52" height="54" viewBox="0 0 52 54" fill="none" xmlns="http://www.w3.org/2000/svg">
<rect x="-1" y="24.6113" width="30" height="30.0003" rx="9" transform="rotate(-6.91366 -1 24.6113)" fill="#FCB6B1"/>
<circle cx="30.5" cy="21.5" r="19.5" fill="#FFDDDB" stroke="white" stroke-width="4"/>
<path d="M28.125 22.5C27.9479 22.5 27.7994 22.44 27.6794 22.32C27.5594 22.2 27.4996 22.0517 27.5 21.875C27.5 21.6979 27.56 21.5494 27.68 21.4294C27.8 21.3094 27.9483 21.2496 28.125 21.25C28.3021 21.25 28.4506 21.31 28.5706 21.43C28.6906 21.55 28.7504 21.6983 28.75 21.875C28.75 22.0521 28.69 22.2006 28.57 22.3206C28.45 22.4406 28.3017 22.5004 28.125 22.5ZM30.625 22.5C30.4479 22.5 30.2994 22.44 30.1794 22.32C30.0594 22.2 29.9996 22.0517 30 21.875C30 21.6979 30.06 21.5494 30.18 21.4294C30.3 21.3094 30.4483 21.2496 30.625 21.25C30.8021 21.25 30.9506 21.31 31.0706 21.43C31.1906 21.55 31.2504 21.6983 31.25 21.875C31.25 22.0521 31.19 22.2006 31.07 22.3206C30.95 22.4406 30.8017 22.5004 30.625 22.5ZM33.125 22.5C32.9479 22.5 32.7994 22.44 32.6794 22.32C32.5594 22.2 32.4996 22.0517 32.5 21.875C32.5 21.6979 32.56 21.5494 32.68 21.4294C32.8 21.3094 32.9483 21.2496 33.125 21.25C33.3021 21.25 33.4506 21.31 33.5706 21.43C33.6906 21.55 33.7504 21.6983 33.75 21.875C33.75 22.0521 33.69 22.2006 33.57 22.3206C33.45 22.4406 33.3017 22.5004 33.125 22.5ZM26.25 27.5C25.9063 27.5 25.6119 27.3775 25.3669 27.1325C25.1219 26.8875 24.9996 26.5933 25 26.25V17.5C25 17.1563 25.1225 16.8619 25.3675 16.6169C25.6125 16.3719 25.9067 16.2496 26.25 16.25H26.875V15H28.125V16.25H33.125V15H34.375V16.25H35C35.3438 16.25 35.6381 16.3725 35.8831 16.6175C36.1281 16.8625 36.2504 17.1567 36.25 17.5V26.25C36.25 26.5938 36.1275 26.8881 35.8825 27.1331C35.6375 27.3781 35.3433 27.5004 35 27.5H26.25ZM26.25 26.25H35V20H26.25V26.25ZM26.25 18.75H35V17.5H26.25V18.75Z" fill="#FF6E64"/>
</svg>
