<svg width="40" height="41" viewBox="0 0 40 41" fill="none" xmlns="http://www.w3.org/2000/svg">
<rect y="0.469727" width="40" height="40" rx="6" fill="#5A27D5" fill-opacity="0.03"/>
<rect x="5.60001" y="6.06934" width="28.8" height="28.8" rx="4" fill="#5A27D5" fill-opacity="0.01"/>
<path d="M24.5417 29.4284C23.6 29.4284 22.6083 29.2034 21.5833 28.7701C20.5833 28.3451 19.575 27.7617 18.5917 27.0534C17.6167 26.3367 16.675 25.5367 15.7833 24.6617C14.9 23.7701 14.1 22.8284 13.3917 21.8617C12.675 20.8617 12.1 19.8617 11.6917 18.8951C11.2583 17.8617 11.0417 16.8617 11.0417 15.9201C11.0417 15.2701 11.1583 14.6534 11.3833 14.0784C11.6167 13.4867 11.9917 12.9367 12.5 12.4617C13.1417 11.8284 13.875 11.5117 14.6583 11.5117C14.9833 11.5117 15.3167 11.5867 15.6 11.7201C15.925 11.8701 16.2 12.0951 16.4 12.3951L18.3333 15.1201C18.5083 15.3617 18.6417 15.5951 18.7333 15.8284C18.8417 16.0784 18.9 16.3284 18.9 16.5701C18.9 16.8867 18.8083 17.1951 18.6333 17.4867C18.5083 17.7117 18.3167 17.9534 18.075 18.1951L17.5083 18.7867C17.5167 18.8117 17.525 18.8284 17.5333 18.8451C17.6333 19.0201 17.8333 19.3201 18.2167 19.7701C18.625 20.2367 19.0083 20.6617 19.3917 21.0534C19.8833 21.5367 20.2917 21.9201 20.675 22.2367C21.15 22.6367 21.4583 22.8367 21.6417 22.9284L21.625 22.9701L22.2333 22.3701C22.4917 22.1117 22.7417 21.9201 22.9833 21.7951C23.4417 21.5117 24.025 21.4617 24.6083 21.7034C24.825 21.7951 25.0583 21.9201 25.3083 22.0951L28.075 24.0617C28.3833 24.2701 28.6083 24.5367 28.7417 24.8534C28.8667 25.1701 28.925 25.4617 28.925 25.7534C28.925 26.1534 28.8333 26.5534 28.6583 26.9284C28.4833 27.3034 28.2667 27.6284 27.9917 27.9284C27.5167 28.4534 27 28.8284 26.4 29.0701C25.825 29.3034 25.2 29.4284 24.5417 29.4284ZM14.6583 12.7617C14.2 12.7617 13.775 12.9617 13.3667 13.3617C12.9833 13.7201 12.7167 14.1117 12.55 14.5367C12.375 14.9701 12.2917 15.4284 12.2917 15.9201C12.2917 16.6951 12.475 17.5367 12.8417 18.4034C13.2167 19.2867 13.7417 20.2034 14.4083 21.1201C15.075 22.0367 15.8333 22.9284 16.6667 23.7701C17.5 24.5951 18.4 25.3617 19.325 26.0367C20.225 26.6951 21.15 27.2284 22.0667 27.6117C23.4917 28.2201 24.825 28.3617 25.925 27.9034C26.35 27.7284 26.725 27.4617 27.0667 27.0784C27.2583 26.8701 27.4083 26.6451 27.5333 26.3784C27.6333 26.1701 27.6833 25.9534 27.6833 25.7367C27.6833 25.6034 27.6583 25.4701 27.5917 25.3201C27.5667 25.2701 27.5167 25.1784 27.3583 25.0701L24.5917 23.1034C24.425 22.9867 24.275 22.9034 24.1333 22.8451C23.95 22.7701 23.875 22.6951 23.5917 22.8701C23.425 22.9534 23.275 23.0784 23.1083 23.2451L22.475 23.8701C22.15 24.1867 21.65 24.2617 21.2667 24.1201L21.0417 24.0201C20.7 23.8367 20.3 23.5534 19.8583 23.1784C19.4583 22.8367 19.025 22.4367 18.5 21.9201C18.0917 21.5034 17.6833 21.0617 17.2583 20.5701C16.8667 20.1117 16.5833 19.7201 16.4083 19.3951L16.3083 19.1451C16.2583 18.9534 16.2417 18.8451 16.2417 18.7284C16.2417 18.4284 16.35 18.1617 16.5583 17.9534L17.1833 17.3034C17.35 17.1367 17.475 16.9784 17.5583 16.8367C17.625 16.7284 17.65 16.6367 17.65 16.5534C17.65 16.4867 17.625 16.3867 17.5833 16.2867C17.525 16.1534 17.4333 16.0034 17.3167 15.8451L15.3833 13.1117C15.3 12.9951 15.2 12.9117 15.075 12.8534C14.9417 12.7951 14.8 12.7617 14.6583 12.7617ZM21.625 22.9784L21.4917 23.5451L21.7167 22.9617C21.675 22.9534 21.6417 22.9617 21.625 22.9784Z" fill="url(#paint0_linear_1255_25603)"/>
<rect x="5.85001" y="6.31934" width="28.3" height="28.3" rx="3.75" stroke="#5A27D5" stroke-opacity="0.1" stroke-width="0.5"/>
<rect x="0.25" y="0.719727" width="39.5" height="39.5" rx="5.75" stroke="#5A27D5" stroke-opacity="0.06" stroke-width="0.5"/>
<defs>
<linearGradient id="paint0_linear_1255_25603" x1="11.0417" y1="11.5117" x2="29.1484" y2="11.7405" gradientUnits="userSpaceOnUse">
<stop stop-color="#5A27D5"/>
<stop offset="0.323634" stop-color="#5F27D3"/>
<stop offset="1" stop-color="#AE2EC4"/>
</linearGradient>
</defs>
</svg>
