<svg width="48" height="49" viewBox="0 0 48 49" fill="none" xmlns="http://www.w3.org/2000/svg">
<rect y="0.469727" width="48" height="48" rx="6" fill="#5A27D5" fill-opacity="0.03"/>
<rect x="6" y="6.46973" width="36" height="36" rx="4" fill="#5A27D5" fill-opacity="0.01"/>
<path d="M24.28 23.343C23.5302 23.3351 22.7995 23.1055 22.1799 22.6832C21.5602 22.2609 21.0794 21.6647 20.7979 20.9697C20.5164 20.2746 20.4469 19.5119 20.598 18.7774C20.7491 18.0429 21.1141 17.3696 21.6471 16.8421C22.1801 16.3147 22.8573 15.9567 23.5933 15.8133C24.3293 15.6699 25.0913 15.7475 25.7833 16.0362C26.4753 16.325 27.0665 16.812 27.4823 17.436C27.8981 18.06 28.12 18.7931 28.12 19.543C28.113 20.5555 27.7049 21.524 26.9851 22.2363C26.2653 22.9486 25.2926 23.3465 24.28 23.343ZM24.28 17.0763C23.7939 17.0842 23.321 17.2355 22.9207 17.5113C22.5203 17.7871 22.2104 18.175 22.0298 18.6264C21.8493 19.0778 21.8061 19.5724 21.9057 20.0482C22.0054 20.5241 22.2434 20.9598 22.5899 21.3008C22.9364 21.6418 23.376 21.8728 23.8533 21.9647C24.3307 22.0567 24.8246 22.0056 25.273 21.8178C25.7214 21.63 26.1043 21.3138 26.3736 20.9091C26.6429 20.5044 26.7866 20.0291 26.7867 19.543C26.7796 18.884 26.512 18.2546 26.0423 17.7924C25.5726 17.3302 24.939 17.0727 24.28 17.0763Z" fill="url(#paint0_linear_1255_25786)"/>
<path d="M24.28 23.343C23.5302 23.3351 22.7995 23.1055 22.1799 22.6832C21.5602 22.2609 21.0794 21.6647 20.7979 20.9697C20.5164 20.2746 20.4469 19.5119 20.598 18.7774C20.7491 18.0429 21.1141 17.3696 21.6471 16.8421C22.1801 16.3147 22.8572 15.9567 23.5933 15.8133C24.3293 15.6699 25.0913 15.7475 25.7833 16.0362C26.4753 16.325 27.0665 16.812 27.4823 17.436C27.8981 18.06 28.12 18.7931 28.12 19.543C28.113 20.5555 27.7049 21.524 26.9851 22.2363C26.2653 22.9486 25.2926 23.3465 24.28 23.343ZM24.28 17.0763C23.7939 17.0842 23.321 17.2355 22.9207 17.5113C22.5203 17.7871 22.2104 18.175 22.0298 18.6264C21.8492 19.0778 21.8061 19.5724 21.9057 20.0482C22.0054 20.5241 22.2434 20.9598 22.5899 21.3008C22.9364 21.6418 23.3759 21.8728 23.8533 21.9647C24.3307 22.0567 24.8246 22.0056 25.273 21.8178C25.7214 21.63 26.1043 21.3138 26.3736 20.9091C26.6429 20.5044 26.7866 20.0291 26.7867 19.543C26.7796 18.884 26.512 18.2546 26.0423 17.7924C25.5726 17.3302 24.939 17.0727 24.28 17.0763ZM26.6067 24.2363C23.6497 23.7217 20.6056 24.1901 17.94 25.5696C17.7508 25.6747 17.5941 25.8298 17.4871 26.0179C17.3801 26.206 17.3269 26.42 17.3333 26.6363V29.0096C17.3333 29.1864 17.4036 29.356 17.5286 29.481C17.6536 29.6061 17.8232 29.6763 18 29.6763C18.1768 29.6763 18.3464 29.6061 18.4714 29.481C18.5964 29.356 18.6667 29.1864 18.6667 29.0096V26.723C21.1385 25.4827 23.9493 25.0892 26.6667 25.603L26.6067 24.2363Z" fill="url(#paint1_linear_1255_25786)"/>
<path d="M34 27.1358H29.5334V26.1491C29.5334 25.9723 29.4631 25.8027 29.3381 25.6777C29.2131 25.5527 29.0435 25.4824 28.8667 25.4824C28.6899 25.4824 28.5203 25.5527 28.3953 25.6777C28.2703 25.8027 28.2 25.9723 28.2 26.1491V27.1358H23.3334C23.1565 27.1358 22.987 27.206 22.8619 27.331C22.7369 27.456 22.6667 27.6256 22.6667 27.8024V34.4691C22.6667 34.6459 22.7369 34.8155 22.8619 34.9405C22.987 35.0655 23.1565 35.1358 23.3334 35.1358H34C34.1768 35.1358 34.3464 35.0655 34.4714 34.9405C34.5964 34.8155 34.6667 34.6459 34.6667 34.4691V27.8024C34.6667 27.6256 34.5964 27.456 34.4714 27.331C34.3464 27.206 34.1768 27.1358 34 27.1358ZM33.3334 33.8024H24V28.4691H28.2V28.7424C28.2 28.9192 28.2703 29.0888 28.3953 29.2138C28.5203 29.3389 28.6899 29.4091 28.8667 29.4091C29.0435 29.4091 29.2131 29.3389 29.3381 29.2138C29.4631 29.0888 29.5334 28.9192 29.5334 28.7424V28.4691H33.3334V33.8024Z" fill="url(#paint2_linear_1255_25786)"/>
<path d="M26.54 30.7495H30.5133V31.6828H26.54V30.7495ZM19.2267 20.6295C17.381 20.6604 15.5673 21.1166 13.9267 21.9628C13.7483 22.0571 13.5988 22.198 13.4943 22.3706C13.3898 22.5433 13.3341 22.741 13.3333 22.9428V25.0095C13.3333 25.1863 13.4036 25.3559 13.5286 25.4809C13.6536 25.6059 13.8232 25.6761 14 25.6761C14.1768 25.6761 14.3464 25.6059 14.4714 25.4809C14.5964 25.3559 14.6667 25.1863 14.6667 25.0095V23.0761C16.2342 22.2959 17.9697 21.9135 19.72 21.9628C19.491 21.545 19.3248 21.0957 19.2267 20.6295ZM34.0733 21.9561C32.6019 21.1843 30.9848 20.73 29.3267 20.6228C29.229 21.0882 29.0651 21.5373 28.84 21.9561C30.4021 21.9935 31.9365 22.376 33.3333 23.0761V25.0095C33.3333 25.1863 33.4036 25.3559 33.5286 25.4809C33.6536 25.6059 33.8232 25.6761 34 25.6761C34.1768 25.6761 34.3464 25.6059 34.4714 25.4809C34.5964 25.3559 34.6667 25.1863 34.6667 25.0095V22.9428C34.6671 22.7399 34.612 22.5407 34.5075 22.3668C34.4029 22.1929 34.2528 22.0509 34.0733 21.9561ZM19.1067 19.5428V19.0961C18.5844 19.0263 18.1092 18.7576 17.7801 18.3462C17.4509 17.9348 17.293 17.4122 17.3394 16.8874C17.3858 16.3625 17.6328 15.8758 18.0291 15.5285C18.4253 15.1811 18.9403 15 19.4667 15.0228C20.0142 15.0218 20.5405 15.2347 20.9333 15.6161C21.2799 15.3303 21.6606 15.0884 22.0667 14.8961C21.6131 14.3746 21.0121 14.0027 20.3429 13.8295C19.6738 13.6563 18.9678 13.69 18.3182 13.926C17.6685 14.1621 17.1056 14.5894 16.7037 15.1518C16.3018 15.7141 16.0797 16.3851 16.0667 17.0761C16.0807 17.922 16.4095 18.7322 16.9889 19.3486C17.5683 19.965 18.3567 20.3432 19.2 20.4095C19.1435 20.1239 19.1122 19.8339 19.1067 19.5428ZM28.5133 13.6895C28.0552 13.6896 27.6017 13.781 27.1793 13.9584C26.7569 14.1359 26.3741 14.3957 26.0533 14.7228C26.504 14.8861 26.9302 15.1104 27.32 15.3895C27.6312 15.1734 27.9953 15.0459 28.3733 15.0205C28.7513 14.9951 29.1291 15.0727 29.4665 15.2452C29.8038 15.4176 30.0881 15.6784 30.2889 15.9996C30.4897 16.3209 30.5995 16.6907 30.6067 17.0695C30.6025 17.4586 30.4882 17.8385 30.277 18.1653C30.0658 18.4921 29.7664 18.7525 29.4133 18.9161C29.4402 19.1217 29.4535 19.3288 29.4533 19.5361C29.4516 19.8041 29.4293 20.0716 29.3867 20.3361C30.1129 20.1494 30.7571 19.7279 31.2189 19.1371C31.6807 18.5462 31.9342 17.8193 31.94 17.0695C31.9312 16.1677 31.5659 15.306 30.9238 14.6727C30.2818 14.0394 29.4152 13.6859 28.5133 13.6895Z" fill="url(#paint3_linear_1255_25786)"/>
<rect x="6.25" y="6.71973" width="35.5" height="35.5" rx="3.75" stroke="#5A27D5" stroke-opacity="0.1" stroke-width="0.5"/>
<rect x="0.25" y="0.719727" width="47.5" height="47.5" rx="5.75" stroke="#5A27D5" stroke-opacity="0.06" stroke-width="0.5"/>
<defs>
<linearGradient id="paint0_linear_1255_25786" x1="20.52" y1="15.7432" x2="28.215" y2="15.8406" gradientUnits="userSpaceOnUse">
<stop stop-color="#5A27D5"/>
<stop offset="0.323634" stop-color="#5F27D3"/>
<stop offset="1" stop-color="#AE2EC4"/>
</linearGradient>
<linearGradient id="paint1_linear_1255_25786" x1="17.3328" y1="15.7432" x2="28.2555" y2="15.8502" gradientUnits="userSpaceOnUse">
<stop stop-color="#5A27D5"/>
<stop offset="0.323634" stop-color="#5F27D3"/>
<stop offset="1" stop-color="#AE2EC4"/>
</linearGradient>
<linearGradient id="paint2_linear_1255_25786" x1="22.6667" y1="25.4824" x2="34.8156" y2="25.6736" gradientUnits="userSpaceOnUse">
<stop stop-color="#5A27D5"/>
<stop offset="0.323634" stop-color="#5F27D3"/>
<stop offset="1" stop-color="#AE2EC4"/>
</linearGradient>
<linearGradient id="paint3_linear_1255_25786" x1="13.3333" y1="13.6895" x2="34.9318" y2="14.0135" gradientUnits="userSpaceOnUse">
<stop stop-color="#5A27D5"/>
<stop offset="0.323634" stop-color="#5F27D3"/>
<stop offset="1" stop-color="#AE2EC4"/>
</linearGradient>
</defs>
</svg>
