<svg width="48" height="49" viewBox="0 0 48 49" fill="none" xmlns="http://www.w3.org/2000/svg">
<rect y="0.469727" width="48" height="48" rx="6" fill="#5A27D5" fill-opacity="0.03"/>
<rect x="6" y="6.46973" width="36" height="36" rx="4" fill="#5A27D5" fill-opacity="0.01"/>
<path d="M32 14.4697H22C21.2044 14.4697 20.4413 14.7858 19.8787 15.3484C19.3161 15.911 19 16.6741 19 17.4697V24.4697C19 25.2654 19.3161 26.0284 19.8787 26.591C20.4413 27.1537 21.2044 27.4697 22 27.4697H32C32.7956 27.4697 33.5587 27.1537 34.1213 26.591C34.6839 26.0284 35 25.2654 35 24.4697V17.4697C35 16.6741 34.6839 15.911 34.1213 15.3484C33.5587 14.7858 32.7956 14.4697 32 14.4697ZM33 24.4697C33 24.7349 32.8946 24.9893 32.7071 25.1768C32.5196 25.3644 32.2652 25.4697 32 25.4697H22C21.7348 25.4697 21.4804 25.3644 21.2929 25.1768C21.1054 24.9893 21 24.7349 21 24.4697V17.4697C21 17.2045 21.1054 16.9502 21.2929 16.7626C21.4804 16.5751 21.7348 16.4697 22 16.4697H32C32.2652 16.4697 32.5196 16.5751 32.7071 16.7626C32.8946 16.9502 33 17.2045 33 17.4697V24.4697ZM29.5 20.4697C29.1298 20.471 28.7733 20.61 28.5 20.8597C28.285 20.6643 28.0178 20.5355 27.7309 20.489C27.4441 20.4426 27.1499 20.4804 26.8842 20.598C26.6185 20.7156 26.3926 20.9078 26.234 21.1513C26.0755 21.3948 25.9911 21.6791 25.9911 21.9697C25.9911 22.2603 26.0755 22.5446 26.234 22.7882C26.3926 23.0317 26.6185 23.2239 26.8842 23.3415C27.1499 23.459 27.4441 23.4969 27.7309 23.4504C28.0178 23.404 28.285 23.2752 28.5 23.0797C28.6806 23.2439 28.8985 23.3614 29.1348 23.4223C29.3711 23.4832 29.6187 23.4854 29.8561 23.429C30.0935 23.3725 30.3135 23.2589 30.4971 23.0981C30.6807 22.9374 30.8223 22.7342 30.9096 22.5064C30.9969 22.2785 31.0273 22.0328 30.9981 21.7905C30.969 21.5482 30.8812 21.3167 30.7423 21.116C30.6034 20.9154 30.4177 20.7516 30.2012 20.639C29.9847 20.5264 29.744 20.4683 29.5 20.4697ZM28 29.4697C27.7348 29.4697 27.4804 29.5751 27.2929 29.7626C27.1054 29.9502 27 30.2045 27 30.4697V31.4697C27 31.7349 26.8946 31.9893 26.7071 32.1768C26.5196 32.3644 26.2652 32.4697 26 32.4697H16C15.7348 32.4697 15.4804 32.3644 15.2929 32.1768C15.1054 31.9893 15 31.7349 15 31.4697V27.4697H16C16.2652 27.4697 16.5196 27.3644 16.7071 27.1768C16.8946 26.9893 17 26.7349 17 26.4697C17 26.2045 16.8946 25.9502 16.7071 25.7626C16.5196 25.5751 16.2652 25.4697 16 25.4697H15V24.4697C15 24.2045 15.1054 23.9502 15.2929 23.7626C15.4804 23.5751 15.7348 23.4697 16 23.4697C16.2652 23.4697 16.5196 23.3644 16.7071 23.1768C16.8946 22.9893 17 22.7349 17 22.4697C17 22.2045 16.8946 21.9502 16.7071 21.7626C16.5196 21.5751 16.2652 21.4697 16 21.4697C15.2044 21.4697 14.4413 21.7858 13.8787 22.3484C13.3161 22.911 13 23.6741 13 24.4697V31.4697C13 32.2654 13.3161 33.0284 13.8787 33.591C14.4413 34.1537 15.2044 34.4697 16 34.4697H26C26.7956 34.4697 27.5587 34.1537 28.1213 33.591C28.6839 33.0284 29 32.2654 29 31.4697V30.4697C29 30.2045 28.8946 29.9502 28.7071 29.7626C28.5196 29.5751 28.2652 29.4697 28 29.4697ZM18 30.4697H19C19.2652 30.4697 19.5196 30.3644 19.7071 30.1768C19.8946 29.9893 20 29.7349 20 29.4697C20 29.2045 19.8946 28.9502 19.7071 28.7626C19.5196 28.5751 19.2652 28.4697 19 28.4697H18C17.7348 28.4697 17.4804 28.5751 17.2929 28.7626C17.1054 28.9502 17 29.2045 17 29.4697C17 29.7349 17.1054 29.9893 17.2929 30.1768C17.4804 30.3644 17.7348 30.4697 18 30.4697Z" fill="url(#paint0_linear_1255_25834)"/>
<rect x="6.25" y="6.71973" width="35.5" height="35.5" rx="3.75" stroke="#5A27D5" stroke-opacity="0.1" stroke-width="0.5"/>
<rect x="0.25" y="0.719727" width="47.5" height="47.5" rx="5.75" stroke="#5A27D5" stroke-opacity="0.06" stroke-width="0.5"/>
<defs>
<linearGradient id="paint0_linear_1255_25834" x1="13" y1="14.4697" x2="35.2741" y2="14.7798" gradientUnits="userSpaceOnUse">
<stop stop-color="#5A27D5"/>
<stop offset="0.323634" stop-color="#5F27D3"/>
<stop offset="1" stop-color="#AE2EC4"/>
</linearGradient>
</defs>
</svg>
