<svg width="18" height="18" viewBox="0 0 18 18" fill="none" xmlns="http://www.w3.org/2000/svg">
<path d="M6.74251 16.1248C5.49751 16.1248 4.24501 15.6523 3.29251 14.6998C1.39501 12.7948 1.39501 9.70484 3.29251 7.80734C3.51001 7.58984 3.87001 7.58984 4.08751 7.80734C4.30501 8.02484 4.30501 8.38484 4.08751 8.60234C2.62501 10.0648 2.62501 12.4423 4.08751 13.9048C5.55001 15.3673 7.92751 15.3673 9.39001 13.9048C10.095 13.1998 10.485 12.2548 10.485 11.2498C10.485 10.2523 10.095 9.30734 9.39001 8.59484C9.17251 8.37734 9.17251 8.01734 9.39001 7.79984C9.60751 7.58234 9.96751 7.58234 10.185 7.79984C11.1075 8.72234 11.61 9.94484 11.61 11.2498C11.61 12.5548 11.1 13.7773 10.185 14.6998C9.24001 15.6523 7.99501 16.1248 6.74251 16.1248Z" fill="#404040"/>
<path d="M14.3026 10.6197C14.1601 10.6197 14.0176 10.5672 13.9051 10.4547C13.6876 10.2372 13.6876 9.87719 13.9051 9.65969C15.4426 8.12219 15.4426 5.62469 13.9051 4.09469C12.3676 2.55719 9.87006 2.55719 8.34006 4.09469C7.59756 4.83719 7.18506 5.82719 7.18506 6.87719C7.18506 7.92719 7.59756 8.91719 8.34006 9.65969C8.55756 9.87719 8.55756 10.2372 8.34006 10.4547C8.12256 10.6722 7.76256 10.6722 7.54506 10.4547C6.59256 9.50219 6.06006 8.22719 6.06006 6.87719C6.06006 5.52719 6.58506 4.25219 7.54506 3.29969C9.51756 1.32719 12.7276 1.32719 14.7076 3.29969C16.6801 5.27219 16.6801 8.48969 14.7076 10.4622C14.5951 10.5672 14.4451 10.6197 14.3026 10.6197Z" fill="#404040"/>
</svg>
