<svg width="40" height="41" viewBox="0 0 40 41" fill="none" xmlns="http://www.w3.org/2000/svg">
<rect y="0.469727" width="40" height="40" rx="6" fill="#5A27D5" fill-opacity="0.03"/>
<rect x="5.60001" y="6.06934" width="28.8" height="28.8" rx="4" fill="#5A27D5" fill-opacity="0.01"/>
<path d="M20 20.47C20.4583 20.47 20.8508 20.3067 21.1775 19.9801C21.5042 19.6534 21.6672 19.2612 21.6667 18.8034C21.6667 18.3451 21.5033 17.9526 21.1767 17.6259C20.85 17.2992 20.4578 17.1362 20 17.1367C19.5417 17.1367 19.1492 17.3001 18.8225 17.6267C18.4958 17.9534 18.3328 18.3456 18.3333 18.8034C18.3333 19.2617 18.4967 19.6542 18.8233 19.9809C19.15 20.3076 19.5422 20.4706 20 20.47ZM20 26.595C21.6945 25.0395 22.9514 23.6262 23.7708 22.3551C24.5903 21.0839 25 19.9556 25 18.9701C25 17.4562 24.5172 16.2167 23.5517 15.2517C22.5861 14.2867 21.4022 13.8039 20 13.8034C18.5972 13.8034 17.4131 14.2862 16.4475 15.2517C15.482 16.2173 14.9995 17.4567 15 18.9701C15 19.9562 15.4097 21.0848 16.2292 22.3559C17.0486 23.627 18.3056 25.04 20 26.595ZM20 28.8034C17.7639 26.9006 16.0939 25.1334 14.99 23.5017C13.8861 21.87 13.3339 20.3595 13.3333 18.9701C13.3333 16.8867 14.0036 15.227 15.3442 13.9909C16.6847 12.7548 18.2367 12.1367 20 12.1367C21.7639 12.1367 23.3161 12.7548 24.6567 13.9909C25.9972 15.227 26.6672 16.8867 26.6667 18.9701C26.6667 20.3589 26.1145 21.8695 25.01 23.5017C23.9056 25.1339 22.2356 26.9012 20 28.8034Z" fill="url(#paint0_linear_1255_25617)"/>
<rect x="5.85001" y="6.31934" width="28.3" height="28.3" rx="3.75" stroke="#5A27D5" stroke-opacity="0.1" stroke-width="0.5"/>
<rect x="0.25" y="0.719727" width="39.5" height="39.5" rx="5.75" stroke="#5A27D5" stroke-opacity="0.06" stroke-width="0.5"/>
<defs>
<linearGradient id="paint0_linear_1255_25617" x1="13.3333" y1="12.1367" x2="26.834" y2="12.2734" gradientUnits="userSpaceOnUse">
<stop stop-color="#5A27D5"/>
<stop offset="0.323634" stop-color="#5F27D3"/>
<stop offset="1" stop-color="#AE2EC4"/>
</linearGradient>
</defs>
</svg>
