<svg width="40" height="41" viewBox="0 0 40 41" fill="none" xmlns="http://www.w3.org/2000/svg">
<rect y="0.469727" width="40" height="40" rx="6" fill="#5A27D5" fill-opacity="0.03"/>
<rect x="5.60001" y="6.06934" width="28.8" height="28.8" rx="4" fill="#5A27D5" fill-opacity="0.01"/>
<path d="M24.1667 28.1784H15.8333C12.7917 28.1784 11.0417 26.4284 11.0417 23.3867V17.5534C11.0417 14.5117 12.7917 12.7617 15.8333 12.7617H24.1667C27.2083 12.7617 28.9583 14.5117 28.9583 17.5534V23.3867C28.9583 26.4284 27.2083 28.1784 24.1667 28.1784ZM15.8333 14.0117C13.45 14.0117 12.2917 15.1701 12.2917 17.5534V23.3867C12.2917 25.7701 13.45 26.9284 15.8333 26.9284H24.1667C26.55 26.9284 27.7083 25.7701 27.7083 23.3867V17.5534C27.7083 15.1701 26.55 14.0117 24.1667 14.0117H15.8333Z" fill="url(#paint0_linear_1255_25610)"/>
<path d="M19.9998 21.1947C19.2998 21.1947 18.5915 20.978 18.0498 20.5364L15.4415 18.453C15.1748 18.2364 15.1248 17.8447 15.3415 17.578C15.5582 17.3114 15.9498 17.2614 16.2165 17.478L18.8248 19.5614C19.4582 20.0697 20.5332 20.0697 21.1665 19.5614L23.7748 17.478C24.0415 17.2614 24.4415 17.303 24.6498 17.578C24.8665 17.8447 24.8248 18.2447 24.5498 18.453L21.9415 20.5364C21.4082 20.978 20.6998 21.1947 19.9998 21.1947Z" fill="url(#paint1_linear_1255_25610)"/>
<rect x="5.85001" y="6.31934" width="28.3" height="28.3" rx="3.75" stroke="#5A27D5" stroke-opacity="0.1" stroke-width="0.5"/>
<rect x="0.25" y="0.719727" width="39.5" height="39.5" rx="5.75" stroke="#5A27D5" stroke-opacity="0.06" stroke-width="0.5"/>
<defs>
<linearGradient id="paint0_linear_1255_25610" x1="11.0417" y1="12.7617" x2="29.1812" y2="13.0285" gradientUnits="userSpaceOnUse">
<stop stop-color="#5A27D5"/>
<stop offset="0.323634" stop-color="#5F27D3"/>
<stop offset="1" stop-color="#AE2EC4"/>
</linearGradient>
<linearGradient id="paint1_linear_1255_25610" x1="15.2059" y1="17.3398" x2="24.8997" y2="17.6448" gradientUnits="userSpaceOnUse">
<stop stop-color="#5A27D5"/>
<stop offset="0.323634" stop-color="#5F27D3"/>
<stop offset="1" stop-color="#AE2EC4"/>
</linearGradient>
</defs>
</svg>
