<svg width="52" height="54" viewBox="0 0 52 54" fill="none" xmlns="http://www.w3.org/2000/svg">
<rect x="-1" y="24.6113" width="30" height="30.0003" rx="9" transform="rotate(-6.91366 -1 24.6113)" fill="#FFE19D"/>
<circle cx="30.5" cy="21.5" r="19.5" fill="#FFF3D7" stroke="white" stroke-width="4"/>
<path d="M37.7377 16.9009L31.3094 13.3659C31.116 13.2587 30.8822 13.2604 30.6906 13.3659L27.9748 14.86C27.7393 14.6948 27.4527 14.5964 27.1434 14.5964C26.3453 14.5964 25.6967 15.245 25.6967 16.043C25.6967 16.8411 26.3453 17.4897 27.1434 17.4897C27.9414 17.4897 28.59 16.8411 28.59 16.043C28.59 16.0255 28.59 16.0079 28.5883 15.9903L31 14.6614L36.785 17.843V24.1536L31 27.3387L25.215 24.1571V19.8382L30.3584 21.4712V22.9196C29.882 23.1569 29.5551 23.6473 29.5551 24.2151C29.5551 25.0132 30.2037 25.6618 31.0018 25.6618C31.7998 25.6618 32.4484 25.0132 32.4484 24.2151C32.4484 23.6491 32.1215 23.1569 31.6451 22.9196V21.378L33.0813 20.58C33.3133 20.7364 33.591 20.8296 33.8916 20.8296C34.6896 20.8296 35.3383 20.1809 35.3383 19.3829C35.3383 18.5848 34.6896 17.9362 33.8916 17.9362C33.0936 17.9362 32.4449 18.5848 32.4449 19.3829C32.4449 19.4093 32.4449 19.4356 32.4467 19.462L30.9297 20.304L24.7668 18.3458C24.5717 18.2843 24.359 18.3177 24.192 18.4389C24.0268 18.5602 23.9283 18.7536 23.9283 18.9575V24.535C23.9283 24.7688 24.0566 24.985 24.2605 25.0975L30.6889 28.6325C30.7855 28.6852 30.8928 28.7116 30.9982 28.7116C31.1037 28.7116 31.2109 28.6852 31.3076 28.6325L37.7359 25.0975C37.9416 24.985 38.0682 24.7688 38.0682 24.535V17.4651C38.0717 17.2296 37.9434 17.0134 37.7377 16.9009ZM27.1434 16.5247C26.8779 16.5247 26.6617 16.3085 26.6617 16.043C26.6617 15.7776 26.8779 15.5614 27.1434 15.5614C27.4088 15.5614 27.625 15.7776 27.625 16.043C27.625 16.3085 27.4088 16.5247 27.1434 16.5247ZM33.8898 18.9012C34.1553 18.9012 34.3715 19.1175 34.3715 19.3829C34.3715 19.6483 34.1553 19.8645 33.8898 19.8645C33.6244 19.8645 33.4082 19.6483 33.4082 19.3829C33.4082 19.1175 33.6244 18.9012 33.8898 18.9012ZM31 24.6968C30.7346 24.6968 30.5184 24.4805 30.5184 24.2151C30.5184 23.9497 30.7346 23.7335 31 23.7335C31.2654 23.7335 31.4816 23.9497 31.4816 24.2151C31.4816 24.4805 31.2654 24.6968 31 24.6968Z" fill="#D6883A"/>
</svg>
