<svg width="51" height="50" viewBox="0 0 51 50" fill="none" xmlns="http://www.w3.org/2000/svg">
<rect x="0.666656" width="50" height="50" rx="6" fill="#5A27D5" fill-opacity="0.03"/>
<rect x="7.66666" y="7" width="36" height="36" rx="4" fill="#5A27D5" fill-opacity="0.01"/>
<path d="M34.6503 19.5345L26.0792 14.8212C25.8213 14.6782 25.5096 14.6806 25.2542 14.8212L21.6331 16.8134C21.319 16.5931 20.937 16.4618 20.5245 16.4618C19.4604 16.4618 18.5956 17.3267 18.5956 18.3907C18.5956 19.4548 19.4604 20.3196 20.5245 20.3196C21.5885 20.3196 22.4534 19.4548 22.4534 18.3907C22.4534 18.3673 22.4534 18.3438 22.451 18.3204L25.6667 16.5485L33.3799 20.7907V29.2048L25.6667 33.4517L17.9534 29.2095V23.4509L24.8112 25.6282V27.5595C24.176 27.8759 23.7401 28.5298 23.7401 29.2868C23.7401 30.3509 24.6049 31.2157 25.669 31.2157C26.7331 31.2157 27.5979 30.3509 27.5979 29.2868C27.5979 28.5321 27.162 27.8759 26.5268 27.5595V25.504L28.4417 24.4399C28.751 24.6485 29.1213 24.7728 29.5221 24.7728C30.5862 24.7728 31.451 23.9079 31.451 22.8438C31.451 21.7798 30.5862 20.9149 29.5221 20.9149C28.4581 20.9149 27.5932 21.7798 27.5932 22.8438C27.5932 22.879 27.5932 22.9142 27.5956 22.9493L25.5729 24.072L17.3557 21.461C17.0956 21.379 16.812 21.4235 16.5893 21.5853C16.369 21.747 16.2378 22.0048 16.2378 22.2767V29.7134C16.2378 30.0251 16.4088 30.3134 16.6807 30.4634L25.2518 35.1767C25.3807 35.247 25.5237 35.2821 25.6643 35.2821C25.8049 35.2821 25.9479 35.247 26.0768 35.1767L34.6479 30.4634C34.9221 30.3134 35.0909 30.0251 35.0909 29.7134V20.2868C35.0956 19.9728 34.9245 19.6845 34.6503 19.5345ZM20.5245 19.0329C20.1706 19.0329 19.8823 18.7446 19.8823 18.3907C19.8823 18.0368 20.1706 17.7485 20.5245 17.7485C20.8784 17.7485 21.1667 18.0368 21.1667 18.3907C21.1667 18.7446 20.8784 19.0329 20.5245 19.0329ZM29.5198 22.2017C29.8737 22.2017 30.162 22.4899 30.162 22.8438C30.162 23.1978 29.8737 23.486 29.5198 23.486C29.1659 23.486 28.8776 23.1978 28.8776 22.8438C28.8776 22.4899 29.1659 22.2017 29.5198 22.2017ZM25.6667 29.929C25.3128 29.929 25.0245 29.6407 25.0245 29.2868C25.0245 28.9329 25.3128 28.6446 25.6667 28.6446C26.0206 28.6446 26.3088 28.9329 26.3088 29.2868C26.3088 29.6407 26.0206 29.929 25.6667 29.929Z" fill="url(#paint0_linear_1255_25568)"/>
<rect x="7.91666" y="7.25" width="35.5" height="35.5" rx="3.75" stroke="#5A27D5" stroke-opacity="0.1" stroke-width="0.5"/>
<rect x="0.916656" y="0.25" width="49.5" height="49.5" rx="5.75" stroke="#5A27D5" stroke-opacity="0.06" stroke-width="0.5"/>
<defs>
<linearGradient id="paint0_linear_1255_25568" x1="16.2378" y1="14.7148" x2="35.327" y2="14.9363" gradientUnits="userSpaceOnUse">
<stop stop-color="#5A27D5"/>
<stop offset="0.323634" stop-color="#5F27D3"/>
<stop offset="1" stop-color="#AE2EC4"/>
</linearGradient>
</defs>
</svg>
