<svg width="48" height="49" viewBox="0 0 48 49" fill="none" xmlns="http://www.w3.org/2000/svg">
<rect y="0.469727" width="48" height="48" rx="6" fill="#5A27D5" fill-opacity="0.03"/>
<rect x="6" y="6.46973" width="36" height="36" rx="4" fill="#5A27D5" fill-opacity="0.01"/>
<path d="M24 19.9693C24.2984 19.9693 24.5845 19.8508 24.7955 19.6398C25.0065 19.4288 25.125 19.1427 25.125 18.8443C25.125 18.5459 25.0065 18.2598 24.7955 18.0488C24.5845 17.8378 24.2984 17.7193 24 17.7193C23.7016 17.7193 23.4155 17.8378 23.2045 18.0488C22.9935 18.2598 22.875 18.5459 22.875 18.8443C22.875 19.1427 22.9935 19.4288 23.2045 19.6398C23.4155 19.8508 23.7016 19.9693 24 19.9693ZM25.104 14.6518C24.792 14.3982 24.4021 14.2598 24 14.2598C23.5979 14.2598 23.2081 14.3982 22.896 14.6518L15.393 20.7493C14.481 21.4933 15.006 22.9693 16.182 22.9693H16.5V29.2693C15.609 29.7238 15 30.6493 15 31.7188V32.7193C15 32.9182 15.079 33.109 15.2197 33.2496C15.3603 33.3903 15.5511 33.4693 15.75 33.4693H32.25C32.4489 33.4693 32.6397 33.3903 32.7803 33.2496C32.921 33.109 33 32.9182 33 32.7193V31.7188C33 30.6508 32.391 29.7238 31.5 29.2693V22.9693H31.818C32.994 22.9693 33.519 21.4918 32.6055 20.7493L25.1055 14.6503L25.104 14.6518ZM23.844 15.8158C23.8886 15.7798 23.9442 15.7601 24.0015 15.7601C24.0588 15.7601 24.1144 15.7798 24.159 15.8158L31.1115 21.4693H16.887L23.844 15.8158ZM30 28.9693H28.5V22.9693H30V28.9693ZM27 28.9693H24.75V22.9693H27V28.9693ZM23.25 28.9693H21V22.9693H23.25V28.9693ZM30.2505 30.4693C30.9405 30.4693 31.5 31.0288 31.5 31.7188V31.9693H16.5V31.7188C16.5 31.0288 17.0595 30.4693 17.7495 30.4693H30.2505ZM19.5 28.9693H18V22.9693H19.5V28.9693Z" fill="url(#paint0_linear_1255_25777)"/>
<rect x="6.25" y="6.71973" width="35.5" height="35.5" rx="3.75" stroke="#5A27D5" stroke-opacity="0.1" stroke-width="0.5"/>
<rect x="0.25" y="0.719727" width="47.5" height="47.5" rx="5.75" stroke="#5A27D5" stroke-opacity="0.06" stroke-width="0.5"/>
<defs>
<linearGradient id="paint0_linear_1255_25777" x1="14.9298" y1="14.2598" x2="33.2968" y2="14.4793" gradientUnits="userSpaceOnUse">
<stop stop-color="#5A27D5"/>
<stop offset="0.323634" stop-color="#5F27D3"/>
<stop offset="1" stop-color="#AE2EC4"/>
</linearGradient>
</defs>
</svg>
