<svg width="52" height="54" viewBox="0 0 52 54" fill="none" xmlns="http://www.w3.org/2000/svg">
<rect x="-1" y="24.6113" width="30" height="30.0003" rx="9" transform="rotate(-6.91366 -1 24.6113)" fill="#B2E9A5"/>
<circle cx="30.5" cy="21.5" r="19.5" fill="#E2FFDB" stroke="white" stroke-width="4"/>
<path d="M25 20.25V26.25H28V20.25H25ZM29.5 15.75V26.25H32.5V15.75H29.5ZM34 21.75V26.25H37V21.75H34ZM37 27.75H25C24.5875 27.75 24.2343 27.603 23.9403 27.309C23.6463 27.015 23.4995 26.662 23.5 26.25V20.25C23.5 19.8375 23.647 19.4843 23.941 19.1903C24.235 18.8963 24.588 18.7495 25 18.75H28V15.75C28 15.3375 28.147 14.9843 28.441 14.6903C28.735 14.3963 29.088 14.2495 29.5 14.25H32.5C32.9125 14.25 33.2658 14.397 33.5598 14.691C33.8538 14.985 34.0005 15.338 34 15.75V20.25H37C37.4125 20.25 37.7658 20.397 38.0598 20.691C38.3538 20.985 38.5005 21.338 38.5 21.75V26.25C38.5 26.6625 38.353 27.0158 38.059 27.3098C37.765 27.6038 37.412 27.7505 37 27.75Z" fill="#53D633"/>
</svg>
