<svg width="50" height="50" viewBox="0 0 50 50" fill="none" xmlns="http://www.w3.org/2000/svg">
<rect width="50" height="50" rx="6" fill="#5A27D5" fill-opacity="0.03"/>
<rect x="7" y="7" width="36" height="36" rx="4" fill="#5A27D5" fill-opacity="0.01"/>
<path d="M17 24V32H21V24H17ZM23 18V32H27V18H23ZM29 26V32H33V26H29ZM33 34H17C16.45 34 15.979 33.804 15.587 33.412C15.195 33.02 14.9993 32.5493 15 32V24C15 23.45 15.196 22.979 15.588 22.587C15.98 22.195 16.4507 21.9993 17 22H21V18C21 17.45 21.196 16.979 21.588 16.587C21.98 16.195 22.4507 15.9993 23 16H27C27.55 16 28.021 16.196 28.413 16.588C28.805 16.98 29.0007 17.4507 29 18V24H33C33.55 24 34.021 24.196 34.413 24.588C34.805 24.98 35.0007 25.4507 35 26V32C35 32.55 34.804 33.021 34.412 33.413C34.02 33.805 33.5493 34.0007 33 34Z" fill="url(#paint0_linear_1329_31)"/>
<rect x="7.25" y="7.25" width="35.5" height="35.5" rx="3.75" stroke="#5A27D5" stroke-opacity="0.1" stroke-width="0.5"/>
<rect x="0.25" y="0.25" width="49.5" height="49.5" rx="5.75" stroke="#5A27D5" stroke-opacity="0.06" stroke-width="0.5"/>
<defs>
<linearGradient id="paint0_linear_1329_31" x1="15" y1="16" x2="35.2491" y2="16.2848" gradientUnits="userSpaceOnUse">
<stop stop-color="#5A27D5"/>
<stop offset="0.323634" stop-color="#5F27D3"/>
<stop offset="1" stop-color="#AE2EC4"/>
</linearGradient>
</defs>
</svg>
