<svg width="18" height="18" viewBox="0 0 18 18" fill="none" xmlns="http://www.w3.org/2000/svg">
<path d="M8.97754 17.0625C4.53754 17.0625 0.915039 13.4475 0.915039 9C0.915039 4.5525 4.53754 0.9375 8.97754 0.9375C13.4175 0.9375 17.04 4.5525 17.04 9C17.04 13.4475 13.425 17.0625 8.97754 17.0625ZM8.97754 2.0625C5.15254 2.0625 2.04004 5.175 2.04004 9C2.04004 12.825 5.15254 15.9375 8.97754 15.9375C12.8025 15.9375 15.915 12.825 15.915 9C15.915 5.175 12.8025 2.0625 8.97754 2.0625Z" fill="#5A27D5"/>
<path d="M9.95239 12.7356H8.04739C6.14989 12.7356 5.26489 11.8506 5.26489 9.95313V8.04812C5.26489 6.15062 6.14989 5.26562 8.04739 5.26562H9.95239C11.8499 5.26562 12.7349 6.15062 12.7349 8.04812V9.95313C12.7349 11.8506 11.8499 12.7356 9.95239 12.7356ZM8.04739 6.39063C6.77989 6.39063 6.38989 6.78062 6.38989 8.04812V9.95313C6.38989 11.2206 6.77989 11.6106 8.04739 11.6106H9.95239C11.2199 11.6106 11.6099 11.2206 11.6099 9.95313V8.04812C11.6099 6.78062 11.2199 6.39063 9.95239 6.39063H8.04739Z" fill="#5A27D5"/>
</svg>
