<svg width="20" height="20" viewBox="0 0 20 20" fill="none" xmlns="http://www.w3.org/2000/svg">
<path d="M9.99984 18.9577C5.05817 18.9577 1.0415 14.941 1.0415 9.99935C1.0415 5.05768 5.05817 1.04102 9.99984 1.04102C14.9415 1.04102 18.9582 5.05768 18.9582 9.99935C18.9582 14.941 14.9415 18.9577 9.99984 18.9577ZM9.99984 2.29102C5.74984 2.29102 2.2915 5.74935 2.2915 9.99935C2.2915 14.2493 5.74984 17.7077 9.99984 17.7077C14.2498 17.7077 17.7082 14.2493 17.7082 9.99935C17.7082 5.74935 14.2498 2.29102 9.99984 2.29102Z" fill="#5A27D5"/>
<path d="M8.8167 12.9827C8.65003 12.9827 8.4917 12.916 8.37503 12.7993L6.0167 10.441C5.77503 10.1993 5.77503 9.79935 6.0167 9.55768C6.25837 9.31602 6.65837 9.31602 6.90003 9.55768L8.8167 11.4743L13.1 7.19102C13.3417 6.94935 13.7417 6.94935 13.9834 7.19102C14.225 7.43268 14.225 7.83268 13.9834 8.07435L9.25837 12.7993C9.1417 12.916 8.98337 12.9827 8.8167 12.9827Z" fill="#5A27D5"/>
</svg>
