<svg width="48" height="49" viewBox="0 0 48 49" fill="none" xmlns="http://www.w3.org/2000/svg">
<rect y="0.469727" width="48" height="48" rx="6" fill="#5A27D5" fill-opacity="0.03"/>
<rect x="6" y="6.46973" width="36" height="36" rx="4" fill="#5A27D5" fill-opacity="0.01"/>
<path d="M21.1667 32.4697V31.6364C21.1667 31.1944 21.3423 30.7704 21.6548 30.4579C21.9674 30.1453 22.3913 29.9697 22.8333 29.9697H26.1667C26.6087 29.9697 27.0326 30.1453 27.3452 30.4579C27.6577 30.7704 27.8333 31.1944 27.8333 31.6364V32.4697M28.6667 23.3031H30.3333C30.7754 23.3031 31.1993 23.4787 31.5118 23.7912C31.8244 24.1038 32 24.5277 32 24.9697V25.8031M17 25.8031V24.9697C17 24.5277 17.1756 24.1038 17.4882 23.7912C17.8007 23.4787 18.2246 23.3031 18.6667 23.3031H20.3333M22.8333 25.8031C22.8333 26.2451 23.0089 26.669 23.3215 26.9816C23.634 27.2941 24.058 27.4697 24.5 27.4697C24.942 27.4697 25.366 27.2941 25.6785 26.9816C25.9911 26.669 26.1667 26.2451 26.1667 25.8031C26.1667 25.361 25.9911 24.9371 25.6785 24.6245C25.366 24.312 24.942 24.1364 24.5 24.1364C24.058 24.1364 23.634 24.312 23.3215 24.6245C23.0089 24.9371 22.8333 25.361 22.8333 25.8031ZM27 19.1364C27 19.5784 27.1756 20.0023 27.4882 20.3149C27.8007 20.6275 28.2246 20.8031 28.6667 20.8031C29.1087 20.8031 29.5326 20.6275 29.8452 20.3149C30.1577 20.0023 30.3333 19.5784 30.3333 19.1364C30.3333 18.6944 30.1577 18.2704 29.8452 17.9579C29.5326 17.6453 29.1087 17.4697 28.6667 17.4697C28.2246 17.4697 27.8007 17.6453 27.4882 17.9579C27.1756 18.2704 27 18.6944 27 19.1364ZM18.6667 19.1364C18.6667 19.5784 18.8423 20.0023 19.1548 20.3149C19.4674 20.6275 19.8913 20.8031 20.3333 20.8031C20.7754 20.8031 21.1993 20.6275 21.5118 20.3149C21.8244 20.0023 22 19.5784 22 19.1364C22 18.6944 21.8244 18.2704 21.5118 17.9579C21.1993 17.6453 20.7754 17.4697 20.3333 17.4697C19.8913 17.4697 19.4674 17.6453 19.1548 17.9579C18.8423 18.2704 18.6667 18.6944 18.6667 19.1364Z" stroke="url(#paint0_linear_1255_25816)" stroke-width="1.5" stroke-linecap="round" stroke-linejoin="round"/>
<rect x="6.25" y="6.71973" width="35.5" height="35.5" rx="3.75" stroke="#5A27D5" stroke-opacity="0.1" stroke-width="0.5"/>
<rect x="0.25" y="0.719727" width="47.5" height="47.5" rx="5.75" stroke="#5A27D5" stroke-opacity="0.06" stroke-width="0.5"/>
<defs>
<linearGradient id="paint0_linear_1255_25816" x1="17" y1="17.4697" x2="32.1874" y2="17.6619" gradientUnits="userSpaceOnUse">
<stop stop-color="#5A27D5"/>
<stop offset="0.323634" stop-color="#5F27D3"/>
<stop offset="1" stop-color="#AE2EC4"/>
</linearGradient>
</defs>
</svg>
