<svg width="18" height="18" viewBox="0 0 18 18" fill="none" xmlns="http://www.w3.org/2000/svg">
<path d="M11.25 17.0625H6.75C2.6775 17.0625 0.9375 15.3225 0.9375 11.25V6.75C0.9375 2.6775 2.6775 0.9375 6.75 0.9375H11.25C15.3225 0.9375 17.0625 2.6775 17.0625 6.75V11.25C17.0625 15.3225 15.3225 17.0625 11.25 17.0625ZM6.75 2.0625C3.2925 2.0625 2.0625 3.2925 2.0625 6.75V11.25C2.0625 14.7075 3.2925 15.9375 6.75 15.9375H11.25C14.7075 15.9375 15.9375 14.7075 15.9375 11.25V6.75C15.9375 3.2925 14.7075 2.0625 11.25 2.0625H6.75Z" fill="white"/>
<path d="M16.11 5.89453H1.89001C1.58251 5.89453 1.32751 5.63953 1.32751 5.33203C1.32751 5.02453 1.57501 4.76953 1.89001 4.76953H16.11C16.4175 4.76953 16.6725 5.02453 16.6725 5.33203C16.6725 5.63953 16.425 5.89453 16.11 5.89453Z" fill="white"/>
<path d="M6.39002 5.78953C6.08252 5.78953 5.82751 5.53453 5.82751 5.22703V1.58203C5.82751 1.27453 6.08252 1.01953 6.39002 1.01953C6.69752 1.01953 6.95252 1.27453 6.95252 1.58203V5.22703C6.95252 5.53453 6.69752 5.78953 6.39002 5.78953Z" fill="white"/>
<path d="M11.61 5.45203C11.3025 5.45203 11.0475 5.19703 11.0475 4.88953V1.58203C11.0475 1.27453 11.3025 1.01953 11.61 1.01953C11.9175 1.01953 12.1725 1.27453 12.1725 1.58203V4.88953C12.1725 5.20453 11.925 5.45203 11.61 5.45203Z" fill="white"/>
<path d="M8.3175 13.5899C8.0475 13.5899 7.7925 13.5224 7.56 13.3949C7.05 13.0949 6.75 12.4949 6.75 11.7374V9.93745C6.75 9.17995 7.05 8.57244 7.5675 8.27244C8.085 7.97244 8.76 8.01744 9.4125 8.39994L10.9725 9.29994C11.625 9.67494 12.0075 10.2374 12.0075 10.8374C12.0075 11.4374 11.625 11.9999 10.965 12.3749L9.405 13.2749C9.045 13.4849 8.67 13.5899 8.3175 13.5899ZM8.325 9.20245C8.25 9.20245 8.1825 9.21744 8.13 9.24744C7.9725 9.33744 7.875 9.59245 7.875 9.93745V11.7374C7.875 12.0749 7.9725 12.3299 8.13 12.4274C8.2875 12.5174 8.5575 12.4724 8.85 12.2999L10.41 11.3999C10.7025 11.2274 10.8825 11.0174 10.8825 10.8374C10.8825 10.6574 10.71 10.4474 10.41 10.2749L8.85 9.37495C8.655 9.26245 8.4675 9.20245 8.325 9.20245Z" fill="white"/>
</svg>
