<svg width="50" height="50" viewBox="0 0 50 50" fill="none" xmlns="http://www.w3.org/2000/svg">
<rect width="50" height="50" rx="6" fill="#5A27D5" fill-opacity="0.03"/>
<rect x="7" y="7" width="36" height="36" rx="4" fill="#5A27D5" fill-opacity="0.01"/>
<path d="M21.1666 27C20.9305 27 20.7324 26.92 20.5724 26.76C20.4124 26.6 20.3327 26.4022 20.3333 26.1667C20.3333 25.9306 20.4133 25.7325 20.5733 25.5725C20.7333 25.4125 20.9311 25.3328 21.1666 25.3333C21.4027 25.3333 21.6008 25.4133 21.7608 25.5733C21.9208 25.7333 22.0005 25.9311 21.9999 26.1667C21.9999 26.4028 21.9199 26.6008 21.7599 26.7608C21.5999 26.9208 21.4022 27.0006 21.1666 27ZM24.4999 27C24.2638 27 24.0658 26.92 23.9058 26.76C23.7458 26.6 23.6661 26.4022 23.6666 26.1667C23.6666 25.9306 23.7466 25.7325 23.9066 25.5725C24.0666 25.4125 24.2644 25.3328 24.4999 25.3333C24.7361 25.3333 24.9341 25.4133 25.0941 25.5733C25.2541 25.7333 25.3338 25.9311 25.3333 26.1667C25.3333 26.4028 25.2533 26.6008 25.0933 26.7608C24.9333 26.9208 24.7355 27.0006 24.4999 27ZM27.8333 27C27.5972 27 27.3991 26.92 27.2391 26.76C27.0791 26.6 26.9994 26.4022 26.9999 26.1667C26.9999 25.9306 27.0799 25.7325 27.2399 25.5725C27.3999 25.4125 27.5977 25.3328 27.8333 25.3333C28.0694 25.3333 28.2674 25.4133 28.4274 25.5733C28.5874 25.7333 28.6672 25.9311 28.6666 26.1667C28.6666 26.4028 28.5866 26.6008 28.4266 26.7608C28.2666 26.9208 28.0688 27.0006 27.8333 27ZM18.6666 33.6667C18.2083 33.6667 17.8158 33.5033 17.4891 33.1767C17.1624 32.85 16.9994 32.4578 16.9999 32V20.3333C16.9999 19.875 17.1633 19.4825 17.4899 19.1558C17.8166 18.8292 18.2088 18.6661 18.6666 18.6667H19.4999V17H21.1666V18.6667H27.8333V17H29.4999V18.6667H30.3333C30.7916 18.6667 31.1841 18.83 31.5108 19.1567C31.8374 19.4833 32.0005 19.8756 31.9999 20.3333V32C31.9999 32.4583 31.8366 32.8508 31.5099 33.1775C31.1833 33.5042 30.7911 33.6672 30.3333 33.6667H18.6666ZM18.6666 32H30.3333V23.6667H18.6666V32ZM18.6666 22H30.3333V20.3333H18.6666V22Z" fill="url(#paint0_linear_1379_27468)"/>
<rect x="7.25" y="7.25" width="35.5" height="35.5" rx="3.75" stroke="#5A27D5" stroke-opacity="0.1" stroke-width="0.5"/>
<rect x="0.25" y="0.25" width="49.5" height="49.5" rx="5.75" stroke="#5A27D5" stroke-opacity="0.06" stroke-width="0.5"/>
<defs>
<linearGradient id="paint0_linear_1379_27468" x1="16.9999" y1="17" x2="32.1878" y2="17.173" gradientUnits="userSpaceOnUse">
<stop stop-color="#5A27D5"/>
<stop offset="0.323634" stop-color="#5F27D3"/>
<stop offset="1" stop-color="#AE2EC4"/>
</linearGradient>
</defs>
</svg>
