<svg width="1240" height="194" viewBox="0 0 1240 194" fill="none" xmlns="http://www.w3.org/2000/svg">
<g clip-path="url(#clip0_1802_33119)">
<rect width="1240" height="194" rx="20" fill="url(#paint0_linear_1802_33119)"/>
<rect x="1004" y="60" width="34" height="34" rx="10" fill="#8D2CCA"/>
<path d="M236.938 95H229.545V73.1818H237.087C239.253 73.1818 241.114 73.6186 242.67 74.4922C244.232 75.3587 245.432 76.6051 246.27 78.2315C247.108 79.858 247.528 81.804 247.528 84.0696C247.528 86.3423 247.105 88.2955 246.26 89.929C245.422 91.5625 244.211 92.8161 242.627 93.6896C241.05 94.5632 239.154 95 236.938 95ZM233.497 91.5803H236.746C238.266 91.5803 239.534 91.3033 240.55 90.7493C241.565 90.1882 242.329 89.3537 242.84 88.2457C243.351 87.1307 243.607 85.7386 243.607 84.0696C243.607 82.4006 243.351 81.0156 242.84 79.9148C242.329 78.8068 241.572 77.9794 240.571 77.4325C239.577 76.8786 238.341 76.6016 236.863 76.6016H233.497V91.5803ZM251.112 95V78.6364H254.969V95H251.112ZM253.051 76.3139C252.441 76.3139 251.915 76.1115 251.475 75.7067C251.034 75.2947 250.814 74.8011 250.814 74.2259C250.814 73.6435 251.034 73.1499 251.475 72.745C251.915 72.3331 252.441 72.1271 253.051 72.1271C253.669 72.1271 254.195 72.3331 254.628 72.745C255.068 73.1499 255.289 73.6435 255.289 74.2259C255.289 74.8011 255.068 75.2947 254.628 75.7067C254.195 76.1115 253.669 76.3139 253.051 76.3139ZM271.868 82.9616L268.352 83.3452C268.253 82.9901 268.079 82.6562 267.83 82.3438C267.589 82.0312 267.262 81.7791 266.85 81.5874C266.438 81.3956 265.934 81.2997 265.337 81.2997C264.535 81.2997 263.86 81.4737 263.313 81.8217C262.773 82.1697 262.507 82.6207 262.514 83.1747C262.507 83.6506 262.681 84.0376 263.036 84.3359C263.398 84.6342 263.995 84.8793 264.826 85.071L267.617 85.6676C269.165 86.0014 270.316 86.5305 271.069 87.255C271.829 87.9794 272.212 88.9276 272.219 90.0994C272.212 91.1293 271.911 92.0384 271.314 92.8267C270.724 93.608 269.904 94.2187 268.853 94.6591C267.802 95.0994 266.594 95.3196 265.231 95.3196C263.228 95.3196 261.616 94.9006 260.394 94.0625C259.173 93.2173 258.445 92.0419 258.21 90.5362L261.971 90.174C262.141 90.9126 262.504 91.4702 263.058 91.8466C263.612 92.223 264.332 92.4112 265.22 92.4112C266.136 92.4112 266.871 92.223 267.425 91.8466C267.987 91.4702 268.267 91.005 268.267 90.451C268.267 89.9822 268.086 89.5952 267.724 89.2898C267.369 88.9844 266.815 88.75 266.062 88.5866L263.271 88.0007C261.701 87.674 260.54 87.1236 259.787 86.3494C259.034 85.5682 258.661 84.581 258.668 83.3878C258.661 82.3793 258.935 81.5057 259.489 80.767C260.05 80.0213 260.827 79.446 261.822 79.0412C262.823 78.6293 263.977 78.4233 265.284 78.4233C267.202 78.4233 268.711 78.8317 269.812 79.6484C270.92 80.4652 271.605 81.5696 271.868 82.9616ZM282.537 95.3196C280.904 95.3196 279.501 94.9609 278.329 94.2436C277.164 93.5263 276.266 92.5355 275.634 91.2713C275.009 90 274.696 88.5369 274.696 86.8821C274.696 85.2202 275.016 83.7536 275.655 82.4822C276.294 81.2038 277.196 80.2095 278.361 79.4993C279.533 78.782 280.918 78.4233 282.516 78.4233C283.844 78.4233 285.02 78.6683 286.042 79.1584C287.072 79.6413 287.892 80.3267 288.503 81.2145C289.114 82.0952 289.462 83.125 289.547 84.304H285.861C285.712 83.5156 285.357 82.8587 284.796 82.3331C284.242 81.8004 283.5 81.5341 282.569 81.5341C281.781 81.5341 281.088 81.7472 280.492 82.1733C279.895 82.5923 279.43 83.196 279.096 83.9844C278.77 84.7727 278.606 85.7173 278.606 86.8182C278.606 87.9332 278.77 88.892 279.096 89.6946C279.423 90.4901 279.881 91.1044 280.471 91.5376C281.067 91.9638 281.767 92.1768 282.569 92.1768C283.137 92.1768 283.645 92.0703 284.093 91.8572C284.547 91.6371 284.927 91.321 285.233 90.9091C285.538 90.4972 285.748 89.9964 285.861 89.407H289.547C289.455 90.5646 289.114 91.5909 288.525 92.4858C287.935 93.3736 287.132 94.0696 286.117 94.5739C285.101 95.071 283.908 95.3196 282.537 95.3196ZM299.852 95.3196C298.254 95.3196 296.869 94.968 295.697 94.2649C294.525 93.5618 293.616 92.5781 292.97 91.3139C292.33 90.0497 292.011 88.5724 292.011 86.8821C292.011 85.1918 292.33 83.7109 292.97 82.4396C293.616 81.1683 294.525 80.1811 295.697 79.478C296.869 78.7749 298.254 78.4233 299.852 78.4233C301.45 78.4233 302.835 78.7749 304.007 79.478C305.178 80.1811 306.084 81.1683 306.723 82.4396C307.369 83.7109 307.693 85.1918 307.693 86.8821C307.693 88.5724 307.369 90.0497 306.723 91.3139C306.084 92.5781 305.178 93.5618 304.007 94.2649C302.835 94.968 301.45 95.3196 299.852 95.3196ZM299.873 92.2301C300.74 92.2301 301.464 91.9922 302.046 91.5163C302.629 91.0334 303.062 90.3871 303.346 89.5774C303.637 88.7678 303.783 87.8658 303.783 86.8714C303.783 85.87 303.637 84.9645 303.346 84.1548C303.062 83.3381 302.629 82.6882 302.046 82.2053C301.464 81.7223 300.74 81.4808 299.873 81.4808C298.985 81.4808 298.247 81.7223 297.657 82.2053C297.075 82.6882 296.638 83.3381 296.347 84.1548C296.063 84.9645 295.921 85.87 295.921 86.8714C295.921 87.8658 296.063 88.7678 296.347 89.5774C296.638 90.3871 297.075 91.0334 297.657 91.5163C298.247 91.9922 298.985 92.2301 299.873 92.2301ZM325.026 78.6364L319.198 95H314.937L309.11 78.6364H313.222L316.982 90.7919H317.153L320.924 78.6364H325.026ZM334.382 95.3196C332.741 95.3196 331.325 94.9787 330.131 94.2969C328.945 93.608 328.033 92.6349 327.393 91.3778C326.754 90.1136 326.435 88.6257 326.435 86.9141C326.435 85.2308 326.754 83.7536 327.393 82.4822C328.04 81.2038 328.942 80.2095 330.099 79.4993C331.257 78.782 332.617 78.4233 334.18 78.4233C335.188 78.4233 336.14 78.5866 337.035 78.9134C337.937 79.233 338.732 79.7301 339.421 80.4048C340.117 81.0795 340.664 81.9389 341.062 82.983C341.46 84.0199 341.658 85.2557 341.658 86.6903V87.8729H328.246V85.2734H337.962C337.955 84.5348 337.795 83.8778 337.482 83.3026C337.17 82.7202 336.733 82.2621 336.172 81.9283C335.618 81.5945 334.972 81.4276 334.233 81.4276C333.445 81.4276 332.752 81.6193 332.156 82.0028C331.559 82.3793 331.094 82.8764 330.76 83.4943C330.433 84.1051 330.266 84.7763 330.259 85.5078V87.777C330.259 88.7287 330.433 89.5455 330.781 90.2273C331.129 90.902 331.616 91.4205 332.241 91.7827C332.866 92.1378 333.597 92.3153 334.435 92.3153C334.996 92.3153 335.504 92.2372 335.959 92.081C336.413 91.9176 336.808 91.6797 337.141 91.3672C337.475 91.0547 337.727 90.6676 337.898 90.206L341.499 90.6108C341.271 91.5625 340.838 92.3935 340.199 93.1037C339.567 93.8068 338.757 94.3537 337.77 94.7443C336.783 95.1278 335.653 95.3196 334.382 95.3196ZM344.921 95V78.6364H348.66V81.3636H348.831C349.129 80.419 349.64 79.6911 350.365 79.1797C351.096 78.6612 351.931 78.402 352.868 78.402C353.081 78.402 353.319 78.4126 353.582 78.4339C353.852 78.4482 354.076 78.473 354.253 78.5085V82.0561C354.09 81.9993 353.831 81.9496 353.476 81.907C353.128 81.8572 352.79 81.8324 352.464 81.8324C351.76 81.8324 351.128 81.9851 350.567 82.2905C350.013 82.5888 349.577 83.0043 349.257 83.5369C348.937 84.0696 348.778 84.6839 348.778 85.38V95H344.921ZM371.395 95.3196C369.761 95.3196 368.358 94.9609 367.187 94.2436C366.022 93.5263 365.123 92.5355 364.491 91.2713C363.866 90 363.554 88.5369 363.554 86.8821C363.554 85.2202 363.873 83.7536 364.513 82.4822C365.152 81.2038 366.054 80.2095 367.219 79.4993C368.39 78.782 369.775 78.4233 371.373 78.4233C372.702 78.4233 373.877 78.6683 374.9 79.1584C375.93 79.6413 376.75 80.3267 377.361 81.2145C377.971 82.0952 378.319 83.125 378.405 84.304H374.719C374.569 83.5156 374.214 82.8587 373.653 82.3331C373.099 81.8004 372.357 81.5341 371.427 81.5341C370.638 81.5341 369.946 81.7472 369.349 82.1733C368.753 82.5923 368.287 83.196 367.954 83.9844C367.627 84.7727 367.464 85.7173 367.464 86.8182C367.464 87.9332 367.627 88.892 367.954 89.6946C368.28 90.4901 368.738 91.1044 369.328 91.5376C369.925 91.9638 370.624 92.1768 371.427 92.1768C371.995 92.1768 372.503 92.0703 372.95 91.8572C373.405 91.6371 373.785 91.321 374.09 90.9091C374.395 90.4972 374.605 89.9964 374.719 89.407H378.405C378.312 90.5646 377.971 91.5909 377.382 92.4858C376.792 93.3736 375.99 94.0696 374.974 94.5739C373.959 95.071 372.765 95.3196 371.395 95.3196ZM388.709 95.3196C387.111 95.3196 385.726 94.968 384.554 94.2649C383.382 93.5618 382.473 92.5781 381.827 91.3139C381.188 90.0497 380.868 88.5724 380.868 86.8821C380.868 85.1918 381.188 83.7109 381.827 82.4396C382.473 81.1683 383.382 80.1811 384.554 79.478C385.726 78.7749 387.111 78.4233 388.709 78.4233C390.307 78.4233 391.692 78.7749 392.864 79.478C394.036 80.1811 394.941 81.1683 395.581 82.4396C396.227 83.7109 396.55 85.1918 396.55 86.8821C396.55 88.5724 396.227 90.0497 395.581 91.3139C394.941 92.5781 394.036 93.5618 392.864 94.2649C391.692 94.968 390.307 95.3196 388.709 95.3196ZM388.73 92.2301C389.597 92.2301 390.321 91.9922 390.904 91.5163C391.486 91.0334 391.919 90.3871 392.203 89.5774C392.495 88.7678 392.64 87.8658 392.64 86.8714C392.64 85.87 392.495 84.9645 392.203 84.1548C391.919 83.3381 391.486 82.6882 390.904 82.2053C390.321 81.7223 389.597 81.4808 388.73 81.4808C387.843 81.4808 387.104 81.7223 386.515 82.2053C385.932 82.6882 385.495 83.3381 385.204 84.1548C384.92 84.9645 384.778 85.87 384.778 86.8714C384.778 87.8658 384.92 88.7678 385.204 89.5774C385.495 90.3871 385.932 91.0334 386.515 91.5163C387.104 91.9922 387.843 92.2301 388.73 92.2301ZM410.253 88.1179V78.6364H414.11V95H410.37V92.0916H410.2C409.83 93.0078 409.223 93.7571 408.378 94.3395C407.54 94.9219 406.507 95.2131 405.278 95.2131C404.205 95.2131 403.257 94.9751 402.433 94.4993C401.617 94.0163 400.977 93.3168 400.516 92.4006C400.054 91.4773 399.823 90.3622 399.823 89.0554V78.6364H403.68V88.4588C403.68 89.4957 403.964 90.3196 404.532 90.9304C405.1 91.5412 405.846 91.8466 406.769 91.8466C407.338 91.8466 407.888 91.7081 408.421 91.4311C408.953 91.1541 409.39 90.7422 409.731 90.1953C410.079 89.6413 410.253 88.9489 410.253 88.1179ZM418.075 95V78.6364H421.815V81.3636H421.985C422.283 80.419 422.795 79.6911 423.519 79.1797C424.251 78.6612 425.085 78.402 426.023 78.402C426.236 78.402 426.474 78.4126 426.737 78.4339C427.006 78.4482 427.23 78.473 427.408 78.5085V82.0561C427.244 81.9993 426.985 81.9496 426.63 81.907C426.282 81.8572 425.945 81.8324 425.618 81.8324C424.915 81.8324 424.283 81.9851 423.722 82.2905C423.168 82.5888 422.731 83.0043 422.411 83.5369C422.092 84.0696 421.932 84.6839 421.932 85.38V95H418.075ZM442.903 82.9616L439.387 83.3452C439.288 82.9901 439.114 82.6562 438.865 82.3438C438.624 82.0312 438.297 81.7791 437.885 81.5874C437.473 81.3956 436.969 81.2997 436.373 81.2997C435.57 81.2997 434.895 81.4737 434.348 81.8217C433.809 82.1697 433.542 82.6207 433.549 83.1747C433.542 83.6506 433.716 84.0376 434.071 84.3359C434.434 84.6342 435.03 84.8793 435.861 85.071L438.652 85.6676C440.201 86.0014 441.351 86.5305 442.104 87.255C442.864 87.9794 443.248 88.9276 443.255 90.0994C443.248 91.1293 442.946 92.0384 442.349 92.8267C441.76 93.608 440.939 94.2187 439.888 94.6591C438.837 95.0994 437.63 95.3196 436.266 95.3196C434.263 95.3196 432.651 94.9006 431.429 94.0625C430.208 93.2173 429.48 92.0419 429.245 90.5362L433.006 90.174C433.176 90.9126 433.539 91.4702 434.093 91.8466C434.647 92.223 435.368 92.4112 436.255 92.4112C437.172 92.4112 437.907 92.223 438.461 91.8466C439.022 91.4702 439.302 91.005 439.302 90.451C439.302 89.9822 439.121 89.5952 438.759 89.2898C438.404 88.9844 437.85 88.75 437.097 88.5866L434.306 88.0007C432.736 87.674 431.575 87.1236 430.822 86.3494C430.069 85.5682 429.696 84.581 429.703 83.3878C429.696 82.3793 429.97 81.5057 430.524 80.767C431.085 80.0213 431.863 79.446 432.857 79.0412C433.858 78.6293 435.012 78.4233 436.319 78.4233C438.237 78.4233 439.746 78.8317 440.847 79.6484C441.955 80.4652 442.64 81.5696 442.903 82.9616ZM453.679 95.3196C452.038 95.3196 450.621 94.9787 449.428 94.2969C448.242 93.608 447.33 92.6349 446.69 91.3778C446.051 90.1136 445.732 88.6257 445.732 86.9141C445.732 85.2308 446.051 83.7536 446.69 82.4822C447.337 81.2038 448.239 80.2095 449.396 79.4993C450.554 78.782 451.914 78.4233 453.477 78.4233C454.485 78.4233 455.437 78.5866 456.332 78.9134C457.234 79.233 458.029 79.7301 458.718 80.4048C459.414 81.0795 459.961 81.9389 460.359 82.983C460.756 84.0199 460.955 85.2557 460.955 86.6903V87.8729H447.543V85.2734H457.259C457.251 84.5348 457.092 83.8778 456.779 83.3026C456.467 82.7202 456.03 82.2621 455.469 81.9283C454.915 81.5945 454.268 81.4276 453.53 81.4276C452.741 81.4276 452.049 81.6193 451.452 82.0028C450.856 82.3793 450.391 82.8764 450.057 83.4943C449.73 84.1051 449.563 84.7763 449.556 85.5078V87.777C449.556 88.7287 449.73 89.5455 450.078 90.2273C450.426 90.902 450.913 91.4205 451.538 91.7827C452.163 92.1378 452.894 92.3153 453.732 92.3153C454.293 92.3153 454.801 92.2372 455.256 92.081C455.71 91.9176 456.104 91.6797 456.438 91.3672C456.772 91.0547 457.024 90.6676 457.195 90.206L460.795 90.6108C460.568 91.5625 460.135 92.3935 459.496 93.1037C458.864 93.8068 458.054 94.3537 457.067 94.7443C456.08 95.1278 454.95 95.3196 453.679 95.3196ZM477.151 82.9616L473.635 83.3452C473.536 82.9901 473.362 82.6562 473.113 82.3438C472.872 82.0312 472.545 81.7791 472.133 81.5874C471.721 81.3956 471.217 81.2997 470.621 81.2997C469.818 81.2997 469.143 81.4737 468.596 81.8217C468.057 82.1697 467.79 82.6207 467.797 83.1747C467.79 83.6506 467.964 84.0376 468.319 84.3359C468.682 84.6342 469.278 84.8793 470.109 85.071L472.9 85.6676C474.449 86.0014 475.599 86.5305 476.352 87.255C477.112 87.9794 477.496 88.9276 477.503 90.0994C477.496 91.1293 477.194 92.0384 476.597 92.8267C476.008 93.608 475.187 94.2187 474.136 94.6591C473.085 95.0994 471.878 95.3196 470.514 95.3196C468.511 95.3196 466.899 94.9006 465.677 94.0625C464.456 93.2173 463.728 92.0419 463.493 90.5362L467.254 90.174C467.425 90.9126 467.787 91.4702 468.341 91.8466C468.895 92.223 469.616 92.4112 470.503 92.4112C471.42 92.4112 472.155 92.223 472.709 91.8466C473.27 91.4702 473.55 91.005 473.55 90.451C473.55 89.9822 473.369 89.5952 473.007 89.2898C472.652 88.9844 472.098 88.75 471.345 88.5866L468.554 88.0007C466.984 87.674 465.823 87.1236 465.07 86.3494C464.317 85.5682 463.944 84.581 463.952 83.3878C463.944 82.3793 464.218 81.5057 464.772 80.767C465.333 80.0213 466.111 79.446 467.105 79.0412C468.106 78.6293 469.26 78.4233 470.567 78.4233C472.485 78.4233 473.994 78.8317 475.095 79.6484C476.203 80.4652 476.888 81.5696 477.151 82.9616ZM496.412 78.6364V81.6193H486.739V78.6364H496.412ZM489.157 95V77.0916C489.157 75.9908 489.385 75.0746 489.839 74.343C490.301 73.6115 490.919 73.0646 491.693 72.7024C492.467 72.3402 493.327 72.1591 494.271 72.1591C494.939 72.1591 495.532 72.2124 496.05 72.3189C496.569 72.4254 496.952 72.5213 497.201 72.6065L496.434 75.5895C496.27 75.5398 496.064 75.4901 495.816 75.4403C495.567 75.3835 495.29 75.3551 494.985 75.3551C494.268 75.3551 493.76 75.5291 493.461 75.8771C493.17 76.218 493.025 76.7081 493.025 77.3473V95H489.157ZM505.955 95.3196C504.357 95.3196 502.972 94.968 501.8 94.2649C500.629 93.5618 499.719 92.5781 499.073 91.3139C498.434 90.0497 498.114 88.5724 498.114 86.8821C498.114 85.1918 498.434 83.7109 499.073 82.4396C499.719 81.1683 500.629 80.1811 501.8 79.478C502.972 78.7749 504.357 78.4233 505.955 78.4233C507.553 78.4233 508.938 78.7749 510.11 79.478C511.282 80.1811 512.188 81.1683 512.827 82.4396C513.473 83.7109 513.796 85.1918 513.796 86.8821C513.796 88.5724 513.473 90.0497 512.827 91.3139C512.188 92.5781 511.282 93.5618 510.11 94.2649C508.938 94.968 507.553 95.3196 505.955 95.3196ZM505.977 92.2301C506.843 92.2301 507.567 91.9922 508.15 91.5163C508.732 91.0334 509.165 90.3871 509.45 89.5774C509.741 88.7678 509.886 87.8658 509.886 86.8714C509.886 85.87 509.741 84.9645 509.45 84.1548C509.165 83.3381 508.732 82.6882 508.15 82.2053C507.567 81.7223 506.843 81.4808 505.977 81.4808C505.089 81.4808 504.35 81.7223 503.761 82.2053C503.178 82.6882 502.741 83.3381 502.45 84.1548C502.166 84.9645 502.024 85.87 502.024 86.8714C502.024 87.8658 502.166 88.7678 502.45 89.5774C502.741 90.3871 503.178 91.0334 503.761 91.5163C504.35 91.9922 505.089 92.2301 505.977 92.2301ZM517.069 95V78.6364H520.809V81.3636H520.979C521.278 80.419 521.789 79.6911 522.513 79.1797C523.245 78.6612 524.079 78.402 525.017 78.402C525.23 78.402 525.468 78.4126 525.731 78.4339C526.001 78.4482 526.224 78.473 526.402 78.5085V82.0561C526.238 81.9993 525.979 81.9496 525.624 81.907C525.276 81.8572 524.939 81.8324 524.612 81.8324C523.909 81.8324 523.277 81.9851 522.716 82.2905C522.162 82.5888 521.725 83.0043 521.405 83.5369C521.086 84.0696 520.926 84.6839 520.926 85.38V95H517.069ZM549.339 82.9616L545.823 83.3452C545.724 82.9901 545.55 82.6562 545.301 82.3438C545.059 82.0312 544.733 81.7791 544.321 81.5874C543.909 81.3956 543.405 81.2997 542.808 81.2997C542.006 81.2997 541.331 81.4737 540.784 81.8217C540.244 82.1697 539.978 82.6207 539.985 83.1747C539.978 83.6506 540.152 84.0376 540.507 84.3359C540.869 84.6342 541.466 84.8793 542.297 85.071L545.088 85.6676C546.636 86.0014 547.787 86.5305 548.54 87.255C549.3 87.9794 549.683 88.9276 549.69 90.0994C549.683 91.1293 549.381 92.0384 548.785 92.8267C548.195 93.608 547.375 94.2187 546.324 94.6591C545.273 95.0994 544.065 95.3196 542.702 95.3196C540.699 95.3196 539.086 94.9006 537.865 94.0625C536.643 93.2173 535.915 92.0419 535.681 90.5362L539.442 90.174C539.612 90.9126 539.974 91.4702 540.528 91.8466C541.082 92.223 541.803 92.4112 542.691 92.4112C543.607 92.4112 544.342 92.223 544.896 91.8466C545.457 91.4702 545.738 91.005 545.738 90.451C545.738 89.9822 545.557 89.5952 545.194 89.2898C544.839 88.9844 544.285 88.75 543.532 88.5866L540.741 88.0007C539.172 87.674 538.01 87.1236 537.258 86.3494C536.505 85.5682 536.132 84.581 536.139 83.3878C536.132 82.3793 536.405 81.5057 536.959 80.767C537.52 80.0213 538.298 79.446 539.292 79.0412C540.294 78.6293 541.448 78.4233 542.755 78.4233C544.672 78.4233 546.182 78.8317 547.282 79.6484C548.39 80.4652 549.076 81.5696 549.339 82.9616ZM561.041 78.6364V81.6193H551.634V78.6364H561.041ZM553.957 74.7159H557.813V90.0781C557.813 90.5966 557.892 90.9943 558.048 91.2713C558.211 91.5412 558.424 91.7259 558.687 91.8253C558.95 91.9247 559.241 91.9744 559.561 91.9744C559.802 91.9744 560.022 91.9567 560.221 91.9212C560.427 91.8857 560.583 91.8537 560.69 91.8253L561.34 94.8402C561.134 94.9112 560.839 94.9893 560.455 95.0746C560.079 95.1598 559.617 95.2095 559.07 95.2237C558.105 95.2521 557.235 95.1065 556.46 94.7869C555.686 94.4602 555.072 93.956 554.617 93.2741C554.17 92.5923 553.95 91.7401 553.957 90.7173V74.7159ZM568.975 95.3303C567.939 95.3303 567.005 95.1456 566.174 94.7763C565.35 94.3999 564.696 93.8459 564.213 93.1143C563.738 92.3828 563.5 91.4808 563.5 90.4084C563.5 89.4851 563.67 88.7216 564.011 88.1179C564.352 87.5142 564.817 87.0312 565.407 86.669C565.996 86.3068 566.66 86.0334 567.399 85.8487C568.145 85.657 568.915 85.5185 569.711 85.4332C570.669 85.3338 571.447 85.245 572.044 85.1669C572.64 85.0817 573.074 84.9538 573.343 84.7834C573.62 84.6058 573.759 84.3324 573.759 83.9631V83.8991C573.759 83.0966 573.521 82.4751 573.045 82.0348C572.569 81.5945 571.884 81.3743 570.989 81.3743C570.044 81.3743 569.295 81.5803 568.741 81.9922C568.194 82.4041 567.825 82.8906 567.633 83.4517L564.032 82.9403C564.316 81.946 564.785 81.1151 565.439 80.4474C566.092 79.7727 566.891 79.2685 567.836 78.9347C568.78 78.5938 569.824 78.4233 570.968 78.4233C571.756 78.4233 572.541 78.5156 573.322 78.7003C574.103 78.8849 574.817 79.1903 575.463 79.6165C576.11 80.0355 576.628 80.6072 577.019 81.3317C577.417 82.0561 577.615 82.9616 577.615 84.0483V95H573.908V92.7521H573.78C573.546 93.2067 573.216 93.6328 572.789 94.0305C572.37 94.4212 571.841 94.7372 571.202 94.9787C570.57 95.2131 569.828 95.3303 568.975 95.3303ZM569.977 92.4964C570.751 92.4964 571.422 92.3437 571.99 92.0384C572.559 91.7259 572.995 91.3139 573.301 90.8026C573.613 90.2912 573.77 89.7337 573.77 89.13V87.2017C573.649 87.3011 573.443 87.3935 573.152 87.4787C572.868 87.5639 572.548 87.6385 572.193 87.7024C571.838 87.7663 571.486 87.8232 571.138 87.8729C570.79 87.9226 570.488 87.9652 570.233 88.0007C569.657 88.0788 569.142 88.2067 568.688 88.3842C568.233 88.5618 567.875 88.8104 567.612 89.13C567.349 89.4425 567.218 89.8473 567.218 90.3445C567.218 91.0547 567.477 91.5909 567.995 91.9531C568.514 92.3153 569.174 92.4964 569.977 92.4964ZM581.493 95V78.6364H585.233V81.3636H585.403C585.701 80.419 586.213 79.6911 586.937 79.1797C587.669 78.6612 588.503 78.402 589.441 78.402C589.654 78.402 589.892 78.4126 590.154 78.4339C590.424 78.4482 590.648 78.473 590.826 78.5085V82.0561C590.662 81.9993 590.403 81.9496 590.048 81.907C589.7 81.8572 589.363 81.8324 589.036 81.8324C588.333 81.8324 587.701 81.9851 587.14 82.2905C586.586 82.5888 586.149 83.0043 585.829 83.5369C585.51 84.0696 585.35 84.6839 585.35 85.38V95H581.493ZM602.438 78.6364V81.6193H593.031V78.6364H602.438ZM595.353 74.7159H599.21V90.0781C599.21 90.5966 599.288 90.9943 599.444 91.2713C599.608 91.5412 599.821 91.7259 600.083 91.8253C600.346 91.9247 600.637 91.9744 600.957 91.9744C601.199 91.9744 601.419 91.9567 601.618 91.9212C601.824 91.8857 601.98 91.8537 602.086 91.8253L602.736 94.8402C602.53 94.9112 602.235 94.9893 601.852 95.0746C601.475 95.1598 601.014 95.2095 600.467 95.2237C599.501 95.2521 598.631 95.1065 597.857 94.7869C597.083 94.4602 596.468 93.956 596.014 93.2741C595.566 92.5923 595.346 91.7401 595.353 90.7173V74.7159ZM616.093 88.1179V78.6364H619.949V95H616.21V92.0916H616.04C615.67 93.0078 615.063 93.7571 614.218 94.3395C613.38 94.9219 612.346 95.2131 611.118 95.2131C610.045 95.2131 609.097 94.9751 608.273 94.4993C607.456 94.0163 606.817 93.3168 606.356 92.4006C605.894 91.4773 605.663 90.3622 605.663 89.0554V78.6364H609.52V88.4588C609.52 89.4957 609.804 90.3196 610.372 90.9304C610.94 91.5412 611.686 91.8466 612.609 91.8466C613.177 91.8466 613.728 91.7081 614.26 91.4311C614.793 91.1541 615.23 90.7422 615.571 90.1953C615.919 89.6413 616.093 88.9489 616.093 88.1179ZM623.915 101.136V78.6364H627.708V81.3423H627.931C628.13 80.9446 628.411 80.522 628.773 80.0746C629.135 79.62 629.625 79.233 630.243 78.9134C630.861 78.5866 631.65 78.4233 632.608 78.4233C633.873 78.4233 635.012 78.7464 636.028 79.3928C637.051 80.032 637.86 80.9801 638.457 82.2372C639.061 83.4872 639.363 85.0213 639.363 86.8395C639.363 88.6364 639.068 90.1634 638.478 91.4205C637.889 92.6776 637.086 93.6364 636.071 94.2969C635.055 94.9574 633.904 95.2876 632.619 95.2876C631.681 95.2876 630.904 95.1314 630.286 94.8189C629.668 94.5064 629.171 94.13 628.794 93.6896C628.425 93.2422 628.137 92.8196 627.931 92.4219H627.772V101.136H623.915ZM627.697 86.8182C627.697 87.8764 627.846 88.8033 628.145 89.5987C628.45 90.3942 628.887 91.0156 629.455 91.4631C630.03 91.9034 630.726 92.1236 631.543 92.1236C632.395 92.1236 633.109 91.8963 633.684 91.4418C634.26 90.9801 634.693 90.3516 634.984 89.5561C635.282 88.7536 635.431 87.8409 635.431 86.8182C635.431 85.8026 635.286 84.9006 634.995 84.1122C634.703 83.3239 634.27 82.706 633.695 82.2585C633.12 81.8111 632.402 81.5874 631.543 81.5874C630.719 81.5874 630.02 81.804 629.444 82.2372C628.869 82.6705 628.432 83.2777 628.134 84.0589C627.843 84.8402 627.697 85.7599 627.697 86.8182ZM658.395 78.6364V81.6193H648.722V78.6364H658.395ZM651.14 95V77.0916C651.14 75.9908 651.367 75.0746 651.822 74.343C652.283 73.6115 652.901 73.0646 653.675 72.7024C654.45 72.3402 655.309 72.1591 656.254 72.1591C656.921 72.1591 657.514 72.2124 658.033 72.3189C658.551 72.4254 658.935 72.5213 659.183 72.6065L658.416 75.5895C658.253 75.5398 658.047 75.4901 657.798 75.4403C657.55 75.3835 657.273 75.3551 656.967 75.3551C656.25 75.3551 655.742 75.5291 655.444 75.8771C655.153 76.218 655.007 76.7081 655.007 77.3473V95H651.14ZM667.938 95.3196C666.34 95.3196 664.955 94.968 663.783 94.2649C662.611 93.5618 661.702 92.5781 661.056 91.3139C660.416 90.0497 660.097 88.5724 660.097 86.8821C660.097 85.1918 660.416 83.7109 661.056 82.4396C661.702 81.1683 662.611 80.1811 663.783 79.478C664.955 78.7749 666.34 78.4233 667.938 78.4233C669.536 78.4233 670.921 78.7749 672.093 79.478C673.264 80.1811 674.17 81.1683 674.809 82.4396C675.455 83.7109 675.779 85.1918 675.779 86.8821C675.779 88.5724 675.455 90.0497 674.809 91.3139C674.17 92.5781 673.264 93.5618 672.093 94.2649C670.921 94.968 669.536 95.3196 667.938 95.3196ZM667.959 92.2301C668.825 92.2301 669.55 91.9922 670.132 91.5163C670.715 91.0334 671.148 90.3871 671.432 89.5774C671.723 88.7678 671.869 87.8658 671.869 86.8714C671.869 85.87 671.723 84.9645 671.432 84.1548C671.148 83.3381 670.715 82.6882 670.132 82.2053C669.55 81.7223 668.825 81.4808 667.959 81.4808C667.071 81.4808 666.333 81.7223 665.743 82.2053C665.161 82.6882 664.724 83.3381 664.433 84.1548C664.149 84.9645 664.007 85.87 664.007 86.8714C664.007 87.8658 664.149 88.7678 664.433 89.5774C664.724 90.3871 665.161 91.0334 665.743 91.5163C666.333 91.9922 667.071 92.2301 667.959 92.2301ZM689.482 88.1179V78.6364H693.338V95H689.599V92.0916H689.428C689.059 93.0078 688.452 93.7571 687.607 94.3395C686.768 94.9219 685.735 95.2131 684.506 95.2131C683.434 95.2131 682.486 94.9751 681.662 94.4993C680.845 94.0163 680.206 93.3168 679.744 92.4006C679.283 91.4773 679.052 90.3622 679.052 89.0554V78.6364H682.908V88.4588C682.908 89.4957 683.192 90.3196 683.761 90.9304C684.329 91.5412 685.075 91.8466 685.998 91.8466C686.566 91.8466 687.116 91.7081 687.649 91.4311C688.182 91.1541 688.619 90.7422 688.96 90.1953C689.308 89.6413 689.482 88.9489 689.482 88.1179ZM701.16 85.4119V95H697.304V78.6364H700.99V81.4169H701.182C701.558 80.5007 702.158 79.7727 702.982 79.233C703.813 78.6932 704.839 78.4233 706.061 78.4233C707.19 78.4233 708.174 78.6648 709.012 79.1477C709.857 79.6307 710.51 80.3303 710.972 81.2464C711.441 82.1626 711.672 83.2741 711.665 84.581V95H707.808V85.1776C707.808 84.0838 707.524 83.228 706.956 82.6101C706.395 81.9922 705.617 81.6832 704.623 81.6832C703.948 81.6832 703.348 81.8324 702.822 82.1307C702.304 82.4219 701.895 82.8445 701.597 83.3984C701.306 83.9524 701.16 84.6236 701.16 85.4119ZM721.657 95.2876C720.372 95.2876 719.221 94.9574 718.206 94.2969C717.19 93.6364 716.388 92.6776 715.798 91.4205C715.209 90.1634 714.914 88.6364 714.914 86.8395C714.914 85.0213 715.212 83.4872 715.809 82.2372C716.412 80.9801 717.226 80.032 718.248 79.3928C719.271 78.7464 720.411 78.4233 721.668 78.4233C722.627 78.4233 723.415 78.5866 724.033 78.9134C724.651 79.233 725.141 79.62 725.503 80.0746C725.866 80.522 726.146 80.9446 726.345 81.3423H726.505V73.1818H730.372V95H726.579V92.4219H726.345C726.146 92.8196 725.858 93.2422 725.482 93.6896C725.106 94.13 724.608 94.5064 723.991 94.8189C723.373 95.1314 722.595 95.2876 721.657 95.2876ZM722.733 92.1236C723.55 92.1236 724.246 91.9034 724.822 91.4631C725.397 91.0156 725.834 90.3942 726.132 89.5987C726.43 88.8033 726.579 87.8764 726.579 86.8182C726.579 85.7599 726.43 84.8402 726.132 84.0589C725.841 83.2777 725.407 82.6705 724.832 82.2372C724.264 81.804 723.564 81.5874 722.733 81.5874C721.874 81.5874 721.157 81.8111 720.581 82.2585C720.006 82.706 719.573 83.3239 719.282 84.1122C718.991 84.9006 718.845 85.8026 718.845 86.8182C718.845 87.8409 718.991 88.7536 719.282 89.5561C719.58 90.3516 720.017 90.9801 720.592 91.4418C721.175 91.8963 721.888 92.1236 722.733 92.1236ZM741.726 95.3196C740.085 95.3196 738.668 94.9787 737.475 94.2969C736.289 93.608 735.376 92.6349 734.737 91.3778C734.098 90.1136 733.778 88.6257 733.778 86.9141C733.778 85.2308 734.098 83.7536 734.737 82.4822C735.384 81.2038 736.286 80.2095 737.443 79.4993C738.601 78.782 739.961 78.4233 741.523 78.4233C742.532 78.4233 743.484 78.5866 744.379 78.9134C745.281 79.233 746.076 79.7301 746.765 80.4048C747.461 81.0795 748.008 81.9389 748.406 82.983C748.803 84.0199 749.002 85.2557 749.002 86.6903V87.8729H735.589V85.2734H745.305C745.298 84.5348 745.138 83.8778 744.826 83.3026C744.513 82.7202 744.077 82.2621 743.516 81.9283C742.962 81.5945 742.315 81.4276 741.577 81.4276C740.788 81.4276 740.096 81.6193 739.499 82.0028C738.903 82.3793 738.438 82.8764 738.104 83.4943C737.777 84.1051 737.61 84.7763 737.603 85.5078V87.777C737.603 88.7287 737.777 89.5455 738.125 90.2273C738.473 90.902 738.96 91.4205 739.585 91.7827C740.21 92.1378 740.941 92.3153 741.779 92.3153C742.34 92.3153 742.848 92.2372 743.303 92.081C743.757 91.9176 744.151 91.6797 744.485 91.3672C744.819 91.0547 745.071 90.6676 745.241 90.206L748.842 90.6108C748.615 91.5625 748.182 92.3935 747.543 93.1037C746.911 93.8068 746.101 94.3537 745.114 94.7443C744.126 95.1278 742.997 95.3196 741.726 95.3196ZM752.265 95V78.6364H756.004V81.3636H756.175C756.473 80.419 756.984 79.6911 757.709 79.1797C758.44 78.6612 759.275 78.402 760.212 78.402C760.425 78.402 760.663 78.4126 760.926 78.4339C761.196 78.4482 761.42 78.473 761.597 78.5085V82.0561C761.434 81.9993 761.175 81.9496 760.819 81.907C760.471 81.8572 760.134 81.8324 759.807 81.8324C759.104 81.8324 758.472 81.9851 757.911 82.2905C757.357 82.5888 756.92 83.0043 756.601 83.5369C756.281 84.0696 756.121 84.6839 756.121 85.38V95H752.265ZM777.093 82.9616L773.577 83.3452C773.477 82.9901 773.303 82.6562 773.055 82.3438C772.813 82.0312 772.487 81.7791 772.075 81.5874C771.663 81.3956 771.159 81.2997 770.562 81.2997C769.759 81.2997 769.085 81.4737 768.538 81.8217C767.998 82.1697 767.732 82.6207 767.739 83.1747C767.732 83.6506 767.906 84.0376 768.261 84.3359C768.623 84.6342 769.22 84.8793 770.051 85.071L772.842 85.6676C774.39 86.0014 775.541 86.5305 776.294 87.255C777.053 87.9794 777.437 88.9276 777.444 90.0994C777.437 91.1293 777.135 92.0384 776.539 92.8267C775.949 93.608 775.129 94.2187 774.078 94.6591C773.026 95.0994 771.819 95.3196 770.455 95.3196C768.453 95.3196 766.84 94.9006 765.619 94.0625C764.397 93.2173 763.669 92.0419 763.435 90.5362L767.195 90.174C767.366 90.9126 767.728 91.4702 768.282 91.8466C768.836 92.223 769.557 92.4112 770.445 92.4112C771.361 92.4112 772.096 92.223 772.65 91.8466C773.211 91.4702 773.492 91.005 773.492 90.451C773.492 89.9822 773.311 89.5952 772.948 89.2898C772.593 88.9844 772.039 88.75 771.286 88.5866L768.495 88.0007C766.926 87.674 765.764 87.1236 765.012 86.3494C764.259 85.5682 763.886 84.581 763.893 83.3878C763.886 82.3793 764.159 81.5057 764.713 80.767C765.274 80.0213 766.052 79.446 767.046 79.0412C768.048 78.6293 769.202 78.4233 770.509 78.4233C772.426 78.4233 773.936 78.8317 775.036 79.6484C776.144 80.4652 776.83 81.5696 777.093 82.9616ZM792.774 95.3303C791.737 95.3303 790.803 95.1456 789.972 94.7763C789.149 94.3999 788.495 93.8459 788.012 93.1143C787.536 92.3828 787.298 91.4808 787.298 90.4084C787.298 89.4851 787.469 88.7216 787.81 88.1179C788.151 87.5142 788.616 87.0312 789.205 86.669C789.795 86.3068 790.459 86.0334 791.198 85.8487C791.943 85.657 792.714 85.5185 793.509 85.4332C794.468 85.3338 795.246 85.245 795.843 85.1669C796.439 85.0817 796.872 84.9538 797.142 84.7834C797.419 84.6058 797.558 84.3324 797.558 83.9631V83.8991C797.558 83.0966 797.32 82.4751 796.844 82.0348C796.368 81.5945 795.683 81.3743 794.788 81.3743C793.843 81.3743 793.094 81.5803 792.54 81.9922C791.993 82.4041 791.624 82.8906 791.432 83.4517L787.831 82.9403C788.115 81.946 788.584 81.1151 789.237 80.4474C789.891 79.7727 790.69 79.2685 791.634 78.9347C792.579 78.5938 793.623 78.4233 794.767 78.4233C795.555 78.4233 796.34 78.5156 797.121 78.7003C797.902 78.8849 798.616 79.1903 799.262 79.6165C799.909 80.0355 800.427 80.6072 800.818 81.3317C801.215 82.0561 801.414 82.9616 801.414 84.0483V95H797.707V92.7521H797.579C797.345 93.2067 797.014 93.6328 796.588 94.0305C796.169 94.4212 795.64 94.7372 795.001 94.9787C794.369 95.2131 793.627 95.3303 792.774 95.3303ZM793.776 92.4964C794.55 92.4964 795.221 92.3437 795.789 92.0384C796.357 91.7259 796.794 91.3139 797.1 90.8026C797.412 90.2912 797.568 89.7337 797.568 89.13V87.2017C797.448 87.3011 797.242 87.3935 796.95 87.4787C796.666 87.5639 796.347 87.6385 795.992 87.7024C795.637 87.7663 795.285 87.8232 794.937 87.8729C794.589 87.9226 794.287 87.9652 794.031 88.0007C793.456 88.0788 792.941 88.2067 792.487 88.3842C792.032 88.5618 791.673 88.8104 791.411 89.13C791.148 89.4425 791.017 89.8473 791.017 90.3445C791.017 91.0547 791.276 91.5909 791.794 91.9531C792.313 92.3153 792.973 92.4964 793.776 92.4964ZM809.149 85.4119V95H805.292V78.6364H808.978V81.4169H809.17C809.546 80.5007 810.146 79.7727 810.97 79.233C811.801 78.6932 812.828 78.4233 814.049 78.4233C815.178 78.4233 816.162 78.6648 817 79.1477C817.845 79.6307 818.499 80.3303 818.96 81.2464C819.429 82.1626 819.66 83.2741 819.653 84.581V95H815.796V85.1776C815.796 84.0838 815.512 83.228 814.944 82.6101C814.383 81.9922 813.605 81.6832 812.611 81.6832C811.936 81.6832 811.336 81.8324 810.811 82.1307C810.292 82.4219 809.884 82.8445 809.585 83.3984C809.294 83.9524 809.149 84.6236 809.149 85.4119ZM829.646 95.2876C828.36 95.2876 827.21 94.9574 826.194 94.2969C825.178 93.6364 824.376 92.6776 823.786 91.4205C823.197 90.1634 822.902 88.6364 822.902 86.8395C822.902 85.0213 823.2 83.4872 823.797 82.2372C824.401 80.9801 825.214 80.032 826.237 79.3928C827.259 78.7464 828.399 78.4233 829.656 78.4233C830.615 78.4233 831.404 78.5866 832.021 78.9134C832.639 79.233 833.129 79.62 833.492 80.0746C833.854 80.522 834.134 80.9446 834.333 81.3423H834.493V73.1818H838.36V95H834.568V92.4219H834.333C834.134 92.8196 833.847 93.2422 833.47 93.6896C833.094 94.13 832.597 94.5064 831.979 94.8189C831.361 95.1314 830.583 95.2876 829.646 95.2876ZM830.722 92.1236C831.539 92.1236 832.235 91.9034 832.81 91.4631C833.385 91.0156 833.822 90.3942 834.12 89.5987C834.419 88.8033 834.568 87.8764 834.568 86.8182C834.568 85.7599 834.419 84.8402 834.12 84.0589C833.829 83.2777 833.396 82.6705 832.82 82.2372C832.252 81.804 831.553 81.5874 830.722 81.5874C829.862 81.5874 829.145 81.8111 828.57 82.2585C827.994 82.706 827.561 83.3239 827.27 84.1122C826.979 84.9006 826.833 85.8026 826.833 86.8182C826.833 87.8409 826.979 88.7536 827.27 89.5561C827.568 90.3516 828.005 90.9801 828.58 91.4418C829.163 91.8963 829.877 92.1236 830.722 92.1236ZM850.082 95V73.1818H853.938V81.3423H854.098C854.297 80.9446 854.577 80.522 854.94 80.0746C855.302 79.62 855.792 79.233 856.41 78.9134C857.028 78.5866 857.816 78.4233 858.775 78.4233C860.039 78.4233 861.179 78.7464 862.195 79.3928C863.217 80.032 864.027 80.9801 864.624 82.2372C865.227 83.4872 865.529 85.0213 865.529 86.8395C865.529 88.6364 865.234 90.1634 864.645 91.4205C864.055 92.6776 863.253 93.6364 862.237 94.2969C861.222 94.9574 860.071 95.2876 858.786 95.2876C857.848 95.2876 857.07 95.1314 856.452 94.8189C855.835 94.5064 855.337 94.13 854.961 93.6896C854.592 93.2422 854.304 92.8196 854.098 92.4219H853.874V95H850.082ZM853.864 86.8182C853.864 87.8764 854.013 88.8033 854.311 89.5987C854.616 90.3942 855.053 91.0156 855.621 91.4631C856.197 91.9034 856.893 92.1236 857.71 92.1236C858.562 92.1236 859.276 91.8963 859.851 91.4418C860.426 90.9801 860.859 90.3516 861.151 89.5561C861.449 88.7536 861.598 87.8409 861.598 86.8182C861.598 85.8026 861.452 84.9006 861.161 84.1122C860.87 83.3239 860.437 82.706 859.862 82.2585C859.286 81.8111 858.569 81.5874 857.71 81.5874C856.886 81.5874 856.186 81.804 855.611 82.2372C855.036 82.6705 854.599 83.2777 854.3 84.0589C854.009 84.8402 853.864 85.7599 853.864 86.8182ZM879.237 88.1179V78.6364H883.094V95H879.355V92.0916H879.184C878.815 93.0078 878.208 93.7571 877.362 94.3395C876.524 94.9219 875.491 95.2131 874.262 95.2131C873.19 95.2131 872.242 94.9751 871.418 94.4993C870.601 94.0163 869.962 93.3168 869.5 92.4006C869.039 91.4773 868.808 90.3622 868.808 89.0554V78.6364H872.664V88.4588C872.664 89.4957 872.948 90.3196 873.517 90.9304C874.085 91.5412 874.83 91.8466 875.754 91.8466C876.322 91.8466 876.872 91.7081 877.405 91.4311C877.938 91.1541 878.374 90.7422 878.715 90.1953C879.063 89.6413 879.237 88.9489 879.237 88.1179ZM899.993 82.9616L896.477 83.3452C896.378 82.9901 896.204 82.6562 895.955 82.3438C895.714 82.0312 895.387 81.7791 894.975 81.5874C894.563 81.3956 894.059 81.2997 893.462 81.2997C892.66 81.2997 891.985 81.4737 891.438 81.8217C890.898 82.1697 890.632 82.6207 890.639 83.1747C890.632 83.6506 890.806 84.0376 891.161 84.3359C891.523 84.6342 892.12 84.8793 892.951 85.071L895.742 85.6676C897.29 86.0014 898.441 86.5305 899.194 87.255C899.954 87.9794 900.337 88.9276 900.344 90.0994C900.337 91.1293 900.036 92.0384 899.439 92.8267C898.849 93.608 898.029 94.2187 896.978 94.6591C895.927 95.0994 894.719 95.3196 893.356 95.3196C891.353 95.3196 889.741 94.9006 888.519 94.0625C887.298 93.2173 886.57 92.0419 886.335 90.5362L890.096 90.174C890.266 90.9126 890.629 91.4702 891.183 91.8466C891.737 92.223 892.457 92.4112 893.345 92.4112C894.261 92.4112 894.996 92.223 895.55 91.8466C896.112 91.4702 896.392 91.005 896.392 90.451C896.392 89.9822 896.211 89.5952 895.849 89.2898C895.494 88.9844 894.94 88.75 894.187 88.5866L891.396 88.0007C889.826 87.674 888.665 87.1236 887.912 86.3494C887.159 85.5682 886.786 84.581 886.793 83.3878C886.786 82.3793 887.06 81.5057 887.614 80.767C888.175 80.0213 888.952 79.446 889.947 79.0412C890.948 78.6293 892.102 78.4233 893.409 78.4233C895.327 78.4233 896.836 78.8317 897.937 79.6484C899.045 80.4652 899.73 81.5696 899.993 82.9616ZM903.525 95V78.6364H907.381V95H903.525ZM905.463 76.3139C904.853 76.3139 904.327 76.1115 903.887 75.7067C903.446 75.2947 903.226 74.8011 903.226 74.2259C903.226 73.6435 903.446 73.1499 903.887 72.745C904.327 72.3331 904.853 72.1271 905.463 72.1271C906.081 72.1271 906.607 72.3331 907.04 72.745C907.48 73.1499 907.701 73.6435 907.701 74.2259C907.701 74.8011 907.48 75.2947 907.04 75.7067C906.607 76.1115 906.081 76.3139 905.463 76.3139ZM915.203 85.4119V95H911.347V78.6364H915.033V81.4169H915.225C915.601 80.5007 916.201 79.7727 917.025 79.233C917.856 78.6932 918.882 78.4233 920.104 78.4233C921.233 78.4233 922.217 78.6648 923.055 79.1477C923.9 79.6307 924.553 80.3303 925.015 81.2464C925.484 82.1626 925.715 83.2741 925.708 84.581V95H921.851V85.1776C921.851 84.0838 921.567 83.228 920.999 82.6101C920.438 81.9922 919.66 81.6832 918.666 81.6832C917.991 81.6832 917.391 81.8324 916.865 82.1307C916.347 82.4219 915.938 82.8445 915.64 83.3984C915.349 83.9524 915.203 84.6236 915.203 85.4119ZM936.872 95.3196C935.232 95.3196 933.815 94.9787 932.622 94.2969C931.436 93.608 930.523 92.6349 929.884 91.3778C929.244 90.1136 928.925 88.6257 928.925 86.9141C928.925 85.2308 929.244 83.7536 929.884 82.4822C930.53 81.2038 931.432 80.2095 932.59 79.4993C933.747 78.782 935.107 78.4233 936.67 78.4233C937.678 78.4233 938.63 78.5866 939.525 78.9134C940.427 79.233 941.222 79.7301 941.911 80.4048C942.607 81.0795 943.154 81.9389 943.552 82.983C943.95 84.0199 944.149 85.2557 944.149 86.6903V87.8729H930.736V85.2734H940.452C940.445 84.5348 940.285 83.8778 939.972 83.3026C939.66 82.7202 939.223 82.2621 938.662 81.9283C938.108 81.5945 937.462 81.4276 936.723 81.4276C935.935 81.4276 935.242 81.6193 934.646 82.0028C934.049 82.3793 933.584 82.8764 933.25 83.4943C932.923 84.1051 932.757 84.7763 932.749 85.5078V87.777C932.749 88.7287 932.923 89.5455 933.271 90.2273C933.619 90.902 934.106 91.4205 934.731 91.7827C935.356 92.1378 936.088 92.3153 936.926 92.3153C937.487 92.3153 937.994 92.2372 938.449 92.081C938.904 91.9176 939.298 91.6797 939.632 91.3672C939.965 91.0547 940.218 90.6676 940.388 90.206L943.989 90.6108C943.762 91.5625 943.328 92.3935 942.689 93.1037C942.057 93.8068 941.247 94.3537 940.26 94.7443C939.273 95.1278 938.144 95.3196 936.872 95.3196ZM960.344 82.9616L956.829 83.3452C956.729 82.9901 956.555 82.6562 956.307 82.3438C956.065 82.0312 955.739 81.7791 955.327 81.5874C954.915 81.3956 954.411 81.2997 953.814 81.2997C953.011 81.2997 952.337 81.4737 951.79 81.8217C951.25 82.1697 950.984 82.6207 950.991 83.1747C950.984 83.6506 951.158 84.0376 951.513 84.3359C951.875 84.6342 952.472 84.8793 953.303 85.071L956.094 85.6676C957.642 86.0014 958.793 86.5305 959.545 87.255C960.305 87.9794 960.689 88.9276 960.696 90.0994C960.689 91.1293 960.387 92.0384 959.79 92.8267C959.201 93.608 958.381 94.2187 957.33 94.6591C956.278 95.0994 955.071 95.3196 953.707 95.3196C951.705 95.3196 950.092 94.9006 948.871 94.0625C947.649 93.2173 946.921 92.0419 946.687 90.5362L950.447 90.174C950.618 90.9126 950.98 91.4702 951.534 91.8466C952.088 92.223 952.809 92.4112 953.697 92.4112C954.613 92.4112 955.348 92.223 955.902 91.8466C956.463 91.4702 956.744 91.005 956.744 90.451C956.744 89.9822 956.563 89.5952 956.2 89.2898C955.845 88.9844 955.291 88.75 954.538 88.5866L951.747 88.0007C950.178 87.674 949.016 87.1236 948.263 86.3494C947.511 85.5682 947.138 84.581 947.145 83.3878C947.138 82.3793 947.411 81.5057 947.965 80.767C948.526 80.0213 949.304 79.446 950.298 79.0412C951.3 78.6293 952.454 78.4233 953.761 78.4233C955.678 78.4233 957.188 78.8317 958.288 79.6484C959.396 80.4652 960.082 81.5696 960.344 82.9616ZM976.809 82.9616L973.294 83.3452C973.194 82.9901 973.02 82.6562 972.772 82.3438C972.53 82.0312 972.203 81.7791 971.792 81.5874C971.38 81.3956 970.875 81.2997 970.279 81.2997C969.476 81.2997 968.801 81.4737 968.255 81.8217C967.715 82.1697 967.449 82.6207 967.456 83.1747C967.449 83.6506 967.623 84.0376 967.978 84.3359C968.34 84.6342 968.936 84.8793 969.767 85.071L972.559 85.6676C974.107 86.0014 975.257 86.5305 976.01 87.255C976.77 87.9794 977.154 88.9276 977.161 90.0994C977.154 91.1293 976.852 92.0384 976.255 92.8267C975.666 93.608 974.846 94.2187 973.794 94.6591C972.743 95.0994 971.536 95.3196 970.172 95.3196C968.169 95.3196 966.557 94.9006 965.336 94.0625C964.114 93.2173 963.386 92.0419 963.152 90.5362L966.912 90.174C967.083 90.9126 967.445 91.4702 967.999 91.8466C968.553 92.223 969.274 92.4112 970.162 92.4112C971.078 92.4112 971.813 92.223 972.367 91.8466C972.928 91.4702 973.208 91.005 973.208 90.451C973.208 89.9822 973.027 89.5952 972.665 89.2898C972.31 88.9844 971.756 88.75 971.003 88.5866L968.212 88.0007C966.642 87.674 965.481 87.1236 964.728 86.3494C963.975 85.5682 963.603 84.581 963.61 83.3878C963.603 82.3793 963.876 81.5057 964.43 80.767C964.991 80.0213 965.769 79.446 966.763 79.0412C967.765 78.6293 968.919 78.4233 970.225 78.4233C972.143 78.4233 973.652 78.8317 974.753 79.6484C975.861 80.4652 976.547 81.5696 976.809 82.9616ZM987.585 95.3196C985.945 95.3196 984.528 94.9787 983.335 94.2969C982.148 93.608 981.236 92.6349 980.597 91.3778C979.957 90.1136 979.638 88.6257 979.638 86.9141C979.638 85.2308 979.957 83.7536 980.597 82.4822C981.243 81.2038 982.145 80.2095 983.303 79.4993C984.46 78.782 985.82 78.4233 987.383 78.4233C988.391 78.4233 989.343 78.5866 990.238 78.9134C991.14 79.233 991.935 79.7301 992.624 80.4048C993.32 81.0795 993.867 81.9389 994.265 82.983C994.663 84.0199 994.862 85.2557 994.862 86.6903V87.8729H981.449V85.2734H991.165C991.158 84.5348 990.998 83.8778 990.685 83.3026C990.373 82.7202 989.936 82.2621 989.375 81.9283C988.821 81.5945 988.175 81.4276 987.436 81.4276C986.648 81.4276 985.955 81.6193 985.359 82.0028C984.762 82.3793 984.297 82.8764 983.963 83.4943C983.636 84.1051 983.469 84.7763 983.462 85.5078V87.777C983.462 88.7287 983.636 89.5455 983.984 90.2273C984.332 90.902 984.819 91.4205 985.444 91.7827C986.069 92.1378 986.8 92.3153 987.638 92.3153C988.2 92.3153 988.707 92.2372 989.162 92.081C989.616 91.9176 990.011 91.6797 990.344 91.3672C990.678 91.0547 990.93 90.6676 991.101 90.206L994.702 90.6108C994.474 91.5625 994.041 92.3935 993.402 93.1037C992.77 93.8068 991.96 94.3537 990.973 94.7443C989.986 95.1278 988.857 95.3196 987.585 95.3196ZM1011.06 82.9616L1007.54 83.3452C1007.44 82.9901 1007.27 82.6562 1007.02 82.3438C1006.78 82.0312 1006.45 81.7791 1006.04 81.5874C1005.63 81.3956 1005.12 81.2997 1004.53 81.2997C1003.72 81.2997 1003.05 81.4737 1002.5 81.8217C1001.96 82.1697 1001.7 82.6207 1001.7 83.1747C1001.7 83.6506 1001.87 84.0376 1002.23 84.3359C1002.59 84.6342 1003.18 84.8793 1004.02 85.071L1006.81 85.6676C1008.35 86.0014 1009.51 86.5305 1010.26 87.255C1011.02 87.9794 1011.4 88.9276 1011.41 90.0994C1011.4 91.1293 1011.1 92.0384 1010.5 92.8267C1009.91 93.608 1009.09 94.2187 1008.04 94.6591C1006.99 95.0994 1005.78 95.3196 1004.42 95.3196C1002.42 95.3196 1000.81 94.9006 999.584 94.0625C998.362 93.2173 997.634 92.0419 997.4 90.5362L1001.16 90.174C1001.33 90.9126 1001.69 91.4702 1002.25 91.8466C1002.8 92.223 1003.52 92.4112 1004.41 92.4112C1005.33 92.4112 1006.06 92.223 1006.61 91.8466C1007.18 91.4702 1007.46 91.005 1007.46 90.451C1007.46 89.9822 1007.28 89.5952 1006.91 89.2898C1006.56 88.9844 1006 88.75 1005.25 88.5866L1002.46 88.0007C1000.89 87.674 999.729 87.1236 998.976 86.3494C998.224 85.5682 997.851 84.581 997.858 83.3878C997.851 82.3793 998.124 81.5057 998.678 80.767C999.239 80.0213 1000.02 79.446 1001.01 79.0412C1002.01 78.6293 1003.17 78.4233 1004.47 78.4233C1006.39 78.4233 1007.9 78.8317 1009 79.6484C1010.11 80.4652 1010.79 81.5696 1011.06 82.9616Z" fill="white"/>
<rect x="-7.5" y="-9.5" width="48" height="48" rx="8.5" stroke="white" stroke-opacity="0.08" stroke-width="3"/>
<rect x="57.5" y="86.5" width="48" height="48" rx="8.5" stroke="white" stroke-opacity="0.08" stroke-width="3"/>
<rect x="1149.5" y="44.5" width="48" height="48" rx="8.5" stroke="white" stroke-opacity="0.08" stroke-width="3"/>
<rect x="342.5" y="53.5" width="48" height="48" rx="8.5" stroke="white" stroke-opacity="0.08" stroke-width="3"/>
<rect x="-11.5" y="109.5" width="89" height="89" rx="8.5" stroke="white" stroke-opacity="0.08" stroke-width="3"/>
<rect x="1173.5" y="-21.5" width="89" height="89" rx="8.5" stroke="white" stroke-opacity="0.08" stroke-width="3"/>
<rect x="371.5" y="75.5" width="61" height="61" rx="8.5" stroke="white" stroke-opacity="0.08" stroke-width="3"/>
<rect x="198" y="-11" width="109" height="70" rx="10" fill="#5829C7"/>
<rect x="1063" y="144" width="109" height="70" rx="10" fill="#8D2CCA"/>
<rect x="737.5" y="31.5" width="32" height="32" rx="8.5" stroke="white" stroke-opacity="0.08" stroke-width="3"/>
<rect x="750" y="-18" width="109" height="70" rx="10" fill="#782ACE"/>
</g>
<defs>
<linearGradient id="paint0_linear_1802_33119" x1="0" y1="0" x2="1247.53" y2="100.92" gradientUnits="userSpaceOnUse">
<stop stop-color="#5A27D5"/>
<stop offset="0.323634" stop-color="#5F27D3"/>
<stop offset="1" stop-color="#AE2EC4"/>
</linearGradient>
<clipPath id="clip0_1802_33119">
<rect width="1240" height="194" rx="20" fill="white"/>
</clipPath>
</defs>
</svg>
