<svg width="1240" height="194" viewBox="0 0 1240 194" fill="none" xmlns="http://www.w3.org/2000/svg">
<g clip-path="url(#clip0_1877_38512)">
<rect width="1240" height="194" rx="20" fill="url(#paint0_linear_1877_38512)"/>
<rect x="1004" y="60" width="34" height="34" rx="10" fill="#8D2CCA"/>
<rect x="-7.5" y="-9.5" width="48" height="48" rx="8.5" stroke="white" stroke-opacity="0.08" stroke-width="3"/>
<rect x="57.5" y="86.5" width="48" height="48" rx="8.5" stroke="white" stroke-opacity="0.08" stroke-width="3"/>
<rect x="1149.5" y="44.5" width="48" height="48" rx="8.5" stroke="white" stroke-opacity="0.08" stroke-width="3"/>
<rect x="342.5" y="53.5" width="48" height="48" rx="8.5" stroke="white" stroke-opacity="0.08" stroke-width="3"/>
<rect x="-11.5" y="109.5" width="89" height="89" rx="8.5" stroke="white" stroke-opacity="0.08" stroke-width="3"/>
<rect x="1173.5" y="-21.5" width="89" height="89" rx="8.5" stroke="white" stroke-opacity="0.08" stroke-width="3"/>
<path d="M380 75.5H424C428.694 75.5 432.5 79.3056 432.5 84V128C432.5 132.694 428.694 136.5 424 136.5H380C375.306 136.5 371.5 132.694 371.5 128V84C371.5 79.3056 375.306 75.5 380 75.5Z" stroke="white" stroke-opacity="0.08" stroke-width="3"/>
<rect x="198" y="-11" width="109" height="70" rx="10" fill="#5829C7"/>
<rect x="1063" y="144" width="109" height="70" rx="10" fill="#8D2CCA"/>
<rect x="737.5" y="31.5" width="32" height="32" rx="8.5" stroke="white" stroke-opacity="0.08" stroke-width="3"/>
<rect x="750" y="-18" width="109" height="70" rx="10" fill="#782ACE"/>
</g>
<defs>
<linearGradient id="paint0_linear_1877_38512" x1="0" y1="0" x2="1247.53" y2="100.92" gradientUnits="userSpaceOnUse">
<stop stop-color="#5A27D5"/>
<stop offset="0.323634" stop-color="#5F27D3"/>
<stop offset="1" stop-color="#AE2EC4"/>
</linearGradient>
<clipPath id="clip0_1877_38512">
<rect width="1240" height="194" rx="20" fill="white"/>
</clipPath>
</defs>
</svg>
